<?xml version="1.0" standalone="no"?>
<!DOCTYPE svg PUBLIC "-//W3C//DTD SVG 20010904//EN"
 "http://www.w3.org/TR/2001/REC-SVG-20010904/DTD/svg10.dtd">
<svg version="1.0" xmlns="http://www.w3.org/2000/svg"
 width="546.000000pt" height="704.000000pt" viewBox="0 0 546.000000 704.000000"
 preserveAspectRatio="xMidYMid meet">

<g transform="translate(0.000000,704.000000) scale(0.100000,-0.100000)"
fill="#000000" stroke="none">
<path d="M2490 6390 c-12 -8 -11 -10 5 -9 11 1 34 5 50 9 l30 8 -35 1 c-19 0
-42 -4 -50 -9z"/>
<path d="M2605 6390 c28 -12 105 -12 105 0 0 6 -27 10 -62 9 -45 0 -57 -3 -43
-9z"/>
<path d="M2425 6364 c-19 -16 -19 -16 5 -9 31 9 50 25 30 25 -8 0 -24 -8 -35
-16z"/>
<path d="M2750 6375 c0 -3 18 -12 40 -21 55 -22 135 -113 149 -169 20 -79 14
-146 -19 -209 -16 -32 -34 -74 -40 -94 -6 -21 -15 -46 -20 -57 -21 -51 -27
-69 -29 -90 -1 -10 -12 -15 -33 -15 -36 0 -28 -16 12 -23 18 -3 14 -5 -15 -7
l-40 -2 33 -9 c26 -8 31 -13 23 -23 -6 -7 -8 -16 -4 -19 3 -4 -3 -7 -15 -7
-15 0 -20 -5 -16 -15 5 -12 -3 -15 -32 -16 -26 -1 -30 -3 -14 -6 93 -14 94
-31 3 -36 l-68 -3 73 -2 c39 -1 72 -6 72 -12 0 -19 68 -80 89 -80 18 0 14 7
-25 44 -46 44 -46 45 -41 98 6 57 15 119 23 156 2 12 16 27 29 32 17 6 35 31
55 72 33 68 36 89 18 118 -10 15 -10 26 0 53 16 45 15 78 -5 140 -19 61 -36
90 -78 134 -40 43 -125 89 -125 68z m210 -423 c0 -20 -32 -99 -49 -121 -26
-34 -42 -20 -29 27 6 20 13 39 17 42 3 3 12 17 18 33 11 24 43 39 43 19z"/>
<path d="M2366 6331 c-16 -11 -34 -28 -39 -38 -6 -11 4 -6 24 12 19 16 38 33
44 37 18 15 0 8 -29 -11z"/>
<path d="M4624 6308 c3 -13 6 -29 6 -35 0 -9 16 -13 47 -13 25 0 43 3 39 7 -4
4 -23 6 -42 4 -46 -4 -48 26 -1 32 l32 4 -32 1 c-18 1 -33 7 -33 12 0 6 -5 10
-11 10 -7 0 -9 -9 -5 -22z"/>
<path d="M4580 6310 c0 -5 -12 -10 -27 -11 -28 -1 -28 -1 -4 -8 34 -9 39 -31
7 -31 -13 0 -28 -4 -31 -10 -8 -13 4 -13 42 1 25 8 30 15 29 40 -1 26 -16 44
-16 19z"/>
<path d="M4300 6235 l0 -75 -52 -2 c-30 0 -40 -3 -23 -5 17 -2 71 1 120 5 78
8 82 9 34 11 -35 0 -59 6 -62 14 -8 22 9 49 39 63 l29 13 -34 -6 c-33 -6 -34
-5 -29 25 3 22 0 32 -9 32 -10 0 -13 -19 -13 -75z"/>
<path d="M755 6280 c-3 -5 -16 -11 -28 -11 -20 -1 -21 -2 -2 -6 11 -3 24 -10
28 -17 6 -7 7 -4 3 7 -4 12 0 17 15 17 11 0 17 5 14 10 -3 6 -10 10 -15 10 -5
0 -12 -4 -15 -10z"/>
<path d="M825 6280 c-3 -5 1 -10 9 -10 21 0 21 -16 0 -24 -12 -5 -15 -19 -12
-66 1 -33 6 -60 9 -60 11 0 29 27 22 33 -3 4 -7 24 -9 45 -2 33 0 38 16 37 30
-2 37 -15 9 -16 l-24 -1 25 -8 c21 -7 22 -8 5 -9 l-20 -2 20 -11 c19 -12 19
-12 -5 -19 -20 -6 -21 -7 -5 -8 12 -1 25 -13 33 -31 8 -17 18 -27 24 -24 6 4
6 10 -1 17 -6 6 -11 37 -11 69 0 55 -1 58 -25 58 -14 0 -25 5 -25 10 0 6 14
10 31 10 17 0 28 4 24 10 -3 6 -24 10 -45 10 -21 0 -42 -4 -45 -10z"/>
<path d="M2285 6244 c-9 -14 -15 -27 -13 -30 2 -2 12 10 22 26 21 37 15 40 -9
4z"/>
<path d="M4593 6240 c-30 -12 -19 -40 16 -39 21 0 23 2 8 8 -17 6 -17 8 -3 20
18 15 36 7 36 -18 0 -21 -43 -43 -65 -35 -9 4 -15 0 -15 -9 0 -13 6 -14 36 -5
38 10 58 3 34 -12 -17 -11 -7 -25 13 -17 10 4 14 22 13 59 -1 49 -3 53 -26 55
-14 1 -35 -2 -47 -7z"/>
<path d="M700 6221 c0 -5 7 -12 16 -15 14 -5 15 -4 4 9 -14 17 -20 19 -20 6z"/>
<path d="M737 6189 c-18 -10 -18 -11 0 -25 17 -12 16 -13 -9 -14 -16 0 -28 -5
-28 -11 0 -11 7 -10 80 9 33 9 33 10 8 11 -32 1 -35 8 -10 27 16 13 16 13 -3
13 -11 0 -28 -4 -38 -10z"/>
<path d="M1050 6191 c0 -4 57 -32 128 -61 70 -29 152 -63 182 -76 30 -12 116
-48 190 -79 74 -32 149 -63 165 -70 17 -8 86 -37 155 -65 69 -27 149 -61 178
-75 29 -14 59 -25 68 -25 10 0 14 -8 12 -22 -3 -21 2 -23 62 -29 36 -3 67 -4
70 -2 2 2 -7 14 -21 26 -67 60 -66 59 -87 46 -17 -10 -34 -6 -118 30 -55 23
-125 53 -156 67 -32 13 -84 35 -115 49 -32 13 -114 47 -183 75 -126 51 -152
62 -290 120 -41 18 -84 36 -95 40 -11 5 -46 20 -79 34 -66 29 -66 29 -66 17z"/>
<path d="M2260 6185 c0 -8 2 -15 4 -15 2 0 6 7 10 15 3 8 1 15 -4 15 -6 0 -10
-7 -10 -15z"/>
<path d="M4029 6126 c-41 -30 -116 -85 -167 -123 -51 -37 -112 -82 -135 -99
-23 -17 -105 -78 -182 -134 -77 -56 -156 -114 -175 -129 -19 -15 -46 -34 -60
-43 -31 -21 -111 -80 -181 -134 -70 -53 -75 -55 -133 -32 -27 10 -51 16 -54
13 -5 -5 60 -35 78 -35 25 0 4 -22 -71 -77 -44 -32 -97 -70 -116 -86 -29 -22
-39 -25 -50 -15 -12 9 -20 6 -44 -20 -17 -18 -27 -32 -23 -32 5 0 3 -5 -4 -12
-22 -22 -12 -29 35 -26 49 3 109 41 81 51 -9 3 -4 14 16 36 16 17 32 29 34 26
3 -3 11 4 19 15 8 11 20 20 27 20 8 0 16 7 20 15 3 8 12 15 21 15 8 0 15 4 15
8 0 5 12 15 28 23 15 8 32 19 37 26 13 14 75 5 75 -12 0 -8 9 -10 25 -7 17 3
27 -1 31 -12 3 -9 14 -16 24 -16 21 0 42 -23 38 -40 -2 -7 6 -13 17 -14 28 -3
83 -56 87 -84 1 -12 7 -22 12 -22 13 2 46 -52 46 -77 0 -12 7 -34 15 -50 8
-15 17 -45 20 -67 4 -21 8 -36 10 -34 2 2 0 34 -6 72 -12 75 -54 168 -99 220
-17 18 -30 36 -30 40 0 3 16 6 36 6 30 0 34 3 30 18 -5 16 9 24 101 55 245 81
660 225 693 240 65 29 11 17 -107 -24 -65 -22 -219 -74 -343 -116 -124 -41
-253 -85 -286 -98 -55 -21 -63 -22 -77 -8 -14 14 -18 13 -45 -6 -17 -11 -35
-21 -41 -21 -11 0 -100 42 -131 61 -8 5 -23 12 -33 16 -10 3 -17 9 -15 14 2 5
62 51 133 104 72 52 141 103 154 112 13 10 42 32 66 48 23 17 98 71 166 122
68 51 139 102 157 115 18 13 43 31 55 42 12 10 42 32 67 49 25 17 59 41 75 54
45 35 46 36 98 72 26 19 47 38 47 43 0 13 -2 11 -81 -46z"/>
<path d="M2261 6097 c-1 -5 4 -29 11 -54 10 -40 9 -47 -5 -55 -10 -5 -17 -19
-17 -31 0 -32 71 -148 96 -157 23 -9 34 -59 34 -150 0 -71 -16 -106 -68 -143
-60 -44 -100 -61 -190 -82 -47 -11 -92 -30 -124 -52 -70 -48 -126 -113 -83
-97 8 3 17 14 20 25 4 10 17 22 31 25 13 3 24 10 24 15 0 5 7 9 15 9 8 0 19 9
25 21 6 11 17 18 23 16 7 -2 20 3 30 12 17 14 20 14 32 -2 12 -16 13 -16 18 4
4 16 11 20 26 16 12 -3 24 -1 27 4 3 5 14 9 24 9 11 0 35 11 55 25 27 18 45
23 68 19 22 -4 28 -3 18 4 -16 11 -6 32 15 32 8 0 12 5 9 11 -4 6 2 13 14 16
11 3 18 9 15 14 -3 5 2 9 10 9 9 0 16 8 16 19 0 11 6 22 13 24 6 3 0 6 -15 6
-26 1 -27 3 -26 59 1 32 -2 64 -6 71 -6 9 18 11 106 7 69 -3 101 -2 83 3 -16
5 -67 9 -112 10 -100 1 -112 20 -15 23 l67 2 -75 5 -75 6 -9 43 c-6 23 -13 42
-18 42 -4 0 -8 7 -8 15 0 9 -6 26 -14 38 -7 12 -21 47 -31 77 -22 68 -33 98
-34 87z m55 -177 c50 -100 38 -122 -19 -35 -22 32 -34 61 -31 70 10 24 25 13
50 -35z"/>
<path d="M825 5779 c-11 -17 0 -20 21 -4 17 13 17 14 2 15 -9 0 -20 -5 -23
-11z"/>
<path d="M513 5750 c-6 -17 -22 -34 -35 -39 -17 -7 -18 -10 -5 -10 18 -1 23
-16 7 -26 -5 -3 -19 -20 -32 -37 l-22 -32 26 19 c14 11 34 35 44 53 13 24 24
32 45 32 33 0 59 9 59 20 0 5 -16 6 -36 3 -34 -6 -35 -5 -28 21 9 36 -9 33
-23 -4z"/>
<path d="M2693 5768 c20 -7 35 -7 50 0 18 9 14 11 -28 11 -46 -1 -48 -1 -22
-11z"/>
<path d="M777 5744 c3 -8 0 -26 -7 -39 -7 -13 -10 -29 -7 -37 3 -8 9 -3 16 15
9 24 15 27 61 27 38 0 50 4 50 15 0 8 5 15 11 15 5 0 7 5 4 10 -3 6 -16 10
-28 9 -12 0 -16 -3 -9 -6 28 -11 9 -23 -35 -22 -46 2 -46 2 -13 8 l35 7 -34 7
c-47 10 -51 9 -44 -9z"/>
<path d="M2668 5743 c28 -2 76 -2 105 0 28 2 5 3 -53 3 -58 0 -81 -1 -52 -3z"/>
<path d="M4623 5734 c-23 -10 -33 -20 -32 -36 0 -13 -2 -36 -5 -53 -3 -16 -3
-21 0 -10 9 31 31 42 90 44 20 1 34 7 38 18 9 22 -10 41 -26 25 -9 -9 -9 -12
0 -12 7 0 12 -4 12 -10 0 -5 -21 -9 -47 -9 -46 2 -46 2 -13 8 34 6 34 7 10 14
l-25 8 30 14 c40 18 9 18 -32 -1z"/>
<path d="M4337 5710 c-6 -27 -10 -30 -46 -30 -22 0 -43 -4 -46 -10 -4 -6 8
-10 29 -10 43 0 45 -8 9 -51 -24 -28 -25 -31 -6 -21 29 16 33 15 33 -8 0 -17
7 -20 48 -20 44 0 49 2 59 30 14 36 6 42 -45 34 -46 -7 -57 4 -36 34 11 16 27
22 72 25 l57 3 -56 2 c-54 2 -56 3 -51 27 2 14 0 25 -6 25 -5 0 -12 -13 -15
-30z m63 -114 c0 -18 -33 -30 -60 -21 -37 12 -23 35 20 35 28 0 40 -4 40 -14z"/>
<path d="M818 5693 c-27 -7 -22 -30 8 -37 15 -4 29 -5 32 -1 3 3 -2 5 -11 5
-9 0 -17 7 -17 16 0 10 7 14 23 12 34 -5 28 -37 -10 -53 -20 -9 -33 -10 -33
-4 0 6 -5 7 -10 4 -6 -4 -7 -11 -4 -17 6 -10 33 -7 67 7 12 5 17 3 17 -8 0 -9
-8 -17 -17 -20 -17 -4 -17 -4 0 -12 24 -10 25 -8 28 55 3 55 3 55 -26 57 -17
0 -38 -1 -47 -4z"/>
<path d="M2519 5688 c37 -7 56 -7 64 1 8 8 -7 11 -53 10 l-65 -1 54 -10z"/>
<path d="M531 5665 c-31 -11 -32 -12 -11 -18 34 -9 18 -31 -29 -40 -24 -5 -41
-10 -39 -11 1 -1 46 1 98 4 52 4 74 7 48 8 -44 2 -48 4 -48 27 0 18 5 25 20
25 11 0 20 5 20 10 0 12 -15 11 -59 -5z"/>
<path d="M2486 5661 c26 -11 304 -19 304 -8 0 4 -51 7 -114 7 -62 0 -135 2
-162 5 -36 4 -43 3 -28 -4z"/>
<path d="M1030 5655 c0 -3 71 -40 158 -81 86 -42 222 -108 302 -146 80 -39
196 -95 258 -124 61 -30 112 -56 112 -59 0 -3 -17 -36 -37 -73 l-37 -67 -1
-140 c-1 -77 0 -131 2 -120 2 11 9 30 15 43 9 17 8 28 -2 46 -17 33 -8 160 12
184 9 9 21 34 28 55 6 20 18 37 25 37 7 0 15 5 17 12 6 17 87 -22 86 -41 -1
-9 0 -32 2 -51 l2 -35 7 30 c4 17 11 29 17 29 5 -1 28 -5 52 -9 53 -9 53 1 2
55 -34 35 -42 39 -58 29 -16 -10 -27 -9 -55 5 -20 9 -39 21 -42 26 -3 6 -15
10 -25 10 -11 0 -54 18 -97 39 -43 21 -132 65 -198 96 -66 32 -211 102 -323
156 -192 94 -222 106 -222 94z"/>
<path d="M4631 5651 c-9 -6 -11 -15 -6 -27 8 -17 9 -17 12 4 6 31 63 33 63 2
0 -17 -5 -19 -27 -15 -23 4 -25 4 -8 -4 19 -9 18 -10 -5 -12 -14 -1 -31 -2
-37 -2 -7 1 -13 -5 -13 -13 0 -15 19 -14 60 3 30 13 42 -4 16 -23 -11 -8 -13
-14 -7 -19 21 -12 31 7 31 61 l0 54 -32 0 c-18 0 -39 -4 -47 -9z"/>
<path d="M2568 5633 c6 -2 18 -2 25 0 6 3 1 5 -13 5 -14 0 -19 -2 -12 -5z"/>
<path d="M2595 5530 c3 -5 29 -10 56 -10 31 0 48 4 44 10 -3 6 -29 10 -56 10
-31 0 -48 -4 -44 -10z"/>
<path d="M2578 5503 c6 -2 18 -2 25 0 6 3 1 5 -13 5 -14 0 -19 -2 -12 -5z"/>
<path d="M2578 5463 c12 -2 30 -2 40 0 9 3 -1 5 -23 4 -22 0 -30 -2 -17 -4z"/>
<path d="M2683 5463 c26 -2 68 -2 95 0 26 2 4 3 -48 3 -52 0 -74 -1 -47 -3z"/>
<path d="M3123 5305 c0 -22 2 -30 4 -17 2 12 2 30 0 40 -3 9 -5 -1 -4 -23z"/>
<path d="M2974 5190 c0 -52 1 -74 3 -47 2 26 2 68 0 95 -2 26 -3 4 -3 -48z"/>
<path d="M2485 5188 c-8 -26 -11 -218 -3 -218 7 0 13 61 9 102 -1 10 7 18 21
21 l23 4 -22 2 c-17 1 -23 7 -23 24 0 13 5 28 12 35 9 9 9 12 -1 12 -8 0 -11
6 -7 15 3 8 3 15 0 15 -2 0 -6 -6 -9 -12z"/>
<path d="M2433 5130 c0 -36 2 -50 4 -32 2 17 2 47 0 65 -2 17 -4 3 -4 -33z"/>
<path d="M2333 5110 c0 -41 2 -58 4 -37 2 20 2 54 0 75 -2 20 -4 3 -4 -38z"/>
<path d="M4318 5153 c-3 -24 -8 -28 -38 -31 -50 -5 -63 -22 -17 -22 20 0 37
-4 37 -9 0 -4 -13 -22 -30 -39 -35 -38 -39 -49 -8 -28 30 21 38 20 38 -4 0
-17 7 -20 50 -20 33 0 50 4 50 13 0 6 3 22 6 35 6 21 3 22 -45 22 -35 0 -51 4
-51 13 0 26 25 37 85 39 l60 2 -57 3 c-54 4 -58 6 -58 28 0 34 -18 32 -22 -2z
m62 -117 c0 -21 -17 -29 -46 -22 -38 10 -30 36 11 36 24 0 35 -5 35 -14z"/>
<path d="M4628 5169 c-10 -5 -15 -16 -12 -24 4 -9 0 -15 -7 -15 -10 -1 -8 -4
3 -11 11 -6 29 -6 50 0 32 9 32 9 6 10 -32 1 -36 18 -10 37 14 11 14 13 2 13
-8 0 -23 -4 -32 -10z"/>
<path d="M4980 5150 c0 -23 -5 -30 -19 -30 -11 0 -23 -4 -26 -10 -4 -6 5 -10
19 -10 24 0 26 -3 26 -45 0 -25 -5 -45 -11 -45 -5 0 -7 -4 -4 -10 3 -5 13 -10
21 -10 10 0 14 14 14 55 0 52 1 55 26 55 16 0 24 5 21 13 -2 6 -14 11 -25 9
-19 -3 -22 2 -22 27 0 17 -4 31 -10 31 -5 0 -10 -13 -10 -30z"/>
<path d="M495 5138 c-37 -14 -41 -18 -17 -14 24 4 32 2 32 -9 0 -8 -6 -15 -12
-15 -9 -1 -8 -4 2 -9 8 -5 29 -7 45 -3 29 6 29 6 6 12 -33 8 -38 28 -10 38 12
5 18 11 13 13 -5 3 -31 -3 -59 -13z"/>
<path d="M4863 5153 c-13 -2 -23 -9 -23 -14 0 -12 7 -11 31 1 15 8 19 7 19 -5
0 -8 -9 -15 -20 -15 -11 0 -20 -4 -20 -10 0 -5 9 -10 20 -10 11 0 20 -4 20
-10 0 -5 -11 -10 -25 -10 -14 0 -25 -4 -25 -9 0 -5 -3 -18 -6 -28 -5 -16 -4
-16 8 -2 7 8 21 18 32 22 17 7 18 4 13 -28 -4 -26 -2 -35 6 -32 15 5 17 149 2
152 -5 1 -20 0 -32 -2z"/>
<path d="M199 5124 c-7 -15 -23 -30 -34 -35 -17 -6 -17 -8 -2 -8 19 -1 23 -16
7 -26 -5 -3 -15 -15 -20 -25 -8 -15 -7 -18 3 -14 8 3 20 17 28 32 18 36 28 42
66 42 32 0 51 14 34 24 -5 4 -12 2 -16 -4 -3 -5 -15 -10 -27 -10 -17 0 -19 4
-14 25 8 33 -7 32 -25 -1z"/>
<path d="M872 5123 c-2 -29 -6 -33 -29 -34 l-28 -1 25 -7 c21 -6 26 -14 28
-49 3 -35 0 -42 -15 -42 -16 0 -16 -1 0 -17 23 -23 29 -13 31 49 1 47 4 53 24
56 12 2 20 7 17 12 -3 4 -14 6 -24 3 -16 -4 -20 1 -24 29 l-4 33 -1 -32z"/>
<path d="M4578 5143 c7 -3 16 -2 19 1 4 3 -2 6 -13 5 -11 0 -14 -3 -6 -6z"/>
<path d="M724 5114 c3 -9 6 -20 6 -25 0 -5 9 -9 20 -9 11 0 20 -7 20 -15 0 -9
-9 -15 -25 -15 -19 0 -25 -5 -25 -22 0 -14 3 -18 8 -12 4 6 17 14 30 18 19 6
22 4 22 -17 0 -14 -6 -28 -12 -30 -8 -3 -6 -6 5 -6 15 -1 17 9 17 74 l0 75
-36 0 c-29 0 -35 -3 -30 -16z m56 -9 c0 -8 -9 -15 -20 -15 -20 0 -26 11 -13
23 12 13 33 7 33 -8z"/>
<path d="M2664 5123 c61 -2 116 -9 123 -15 10 -8 13 -6 13 6 0 14 -15 16 -122
14 l-123 -2 109 -3z"/>
<path d="M4575 5110 c-3 -5 -1 -10 4 -10 6 0 11 5 11 10 0 6 -2 10 -4 10 -3 0
-8 -4 -11 -10z"/>
<path d="M4604 5089 c-24 -6 -25 -7 -6 -8 29 -1 38 -26 25 -62 -9 -23 -8 -29
2 -29 9 0 15 15 17 43 l3 42 50 5 50 6 -56 4 c-31 3 -69 2 -85 -1z"/>
<path d="M2753 5083 c9 -2 25 -2 35 0 9 3 1 5 -18 5 -19 0 -27 -2 -17 -5z"/>
<path d="M4548 5073 c7 -3 16 -2 19 1 4 3 -2 6 -13 5 -11 0 -14 -3 -6 -6z"/>
<path d="M465 5060 c-4 -6 23 -10 75 -10 52 0 79 4 75 10 -3 6 -37 10 -75 10
-38 0 -72 -4 -75 -10z"/>
<path d="M210 5041 l-25 -7 23 -8 c32 -11 28 -36 -5 -36 -16 0 -37 -7 -47 -15
-11 -8 -15 -15 -9 -15 7 0 14 4 17 9 3 5 40 8 81 8 41 0 78 3 82 7 3 3 -15 6
-40 6 -43 0 -47 2 -47 24 0 18 7 26 23 29 20 4 20 4 -3 5 -14 0 -36 -3 -50 -7z"/>
<path d="M428 5043 c7 -3 16 -2 19 1 4 3 -2 6 -13 5 -11 0 -14 -3 -6 -6z"/>
<path d="M815 5040 c3 -5 10 -10 16 -10 5 0 9 5 9 10 0 6 -7 10 -16 10 -8 0
-12 -4 -9 -10z"/>
<path d="M2778 5043 c7 -3 16 -2 19 1 4 3 -2 6 -13 5 -11 0 -14 -3 -6 -6z"/>
<path d="M511 5015 c-1 -17 -6 -36 -13 -43 -9 -9 -8 -12 4 -12 21 0 29 22 18
57 l-8 28 -1 -30z"/>
<path d="M2640 5010 c32 -10 150 -13 150 -2 0 4 -39 8 -88 9 -58 1 -79 -1 -62
-7z"/>
<path d="M2553 4983 c15 -2 39 -2 55 0 15 2 2 4 -28 4 -30 0 -43 -2 -27 -4z"/>
<path d="M2653 4983 c9 -2 23 -2 30 0 6 3 -1 5 -18 5 -16 0 -22 -2 -12 -5z"/>
<path d="M2765 4980 c-19 -7 -19 -8 -2 -15 19 -8 31 -2 26 13 -2 5 -13 6 -24
2z"/>
<path d="M1963 4930 c0 -30 2 -43 4 -27 2 15 2 39 0 55 -2 15 -4 2 -4 -28z"/>
<path d="M2214 4890 c0 -52 1 -74 3 -47 2 26 2 68 0 95 -2 26 -3 4 -3 -48z"/>
<path d="M2781 4934 c0 -11 3 -14 6 -6 3 7 2 16 -1 19 -3 4 -6 -2 -5 -13z"/>
<path d="M2477 4918 c-5 -15 7 -17 104 -20 61 -2 118 0 127 4 9 4 -35 7 -100
7 -81 1 -118 5 -120 13 -3 8 -7 6 -11 -4z"/>
<path d="M3424 4885 c-5 -35 -1 -57 15 -97 11 -28 21 -59 21 -69 0 -11 5 -19
11 -19 7 0 9 8 4 23 -3 12 -9 33 -12 47 -3 14 -10 28 -16 31 -5 4 -9 34 -8 68
1 72 -5 79 -15 16z"/>
<path d="M1190 4906 c0 -2 76 -67 168 -144 129 -107 169 -145 168 -162 -1 -18
9 -26 52 -43 29 -11 55 -17 58 -14 3 3 -6 26 -21 52 -21 36 -31 44 -46 40 -19
-6 -61 21 -139 91 -19 18 -78 66 -130 108 -85 68 -110 84 -110 72z"/>
<path d="M2775 4901 c-3 -5 -1 -12 5 -16 5 -3 10 1 10 9 0 18 -6 21 -15 7z"/>
<path d="M3333 4845 c0 -33 2 -45 4 -27 2 18 2 45 0 60 -2 15 -4 0 -4 -33z"/>
<path d="M3870 4710 c-146 -143 -188 -178 -205 -174 -17 4 -25 -4 -43 -47 -13
-28 -21 -53 -19 -56 3 -2 30 9 60 24 46 23 55 32 51 48 -4 16 33 58 175 198
100 98 181 180 181 182 0 16 -33 -14 -200 -175z"/>
<path d="M2531 4876 c12 -10 99 -16 99 -7 0 7 -22 11 -52 11 -28 0 -49 -2 -47
-4z"/>
<path d="M1962 4850 c0 -14 2 -19 5 -12 2 6 2 18 0 25 -3 6 -5 1 -5 -13z"/>
<path d="M4656 4854 c-4 -10 -1 -14 6 -12 15 5 23 28 10 28 -5 0 -13 -7 -16
-16z"/>
<path d="M4951 4861 c-8 -5 -10 -14 -6 -21 4 -7 2 -16 -6 -21 -11 -7 -9 -9 6
-9 15 0 17 -2 6 -9 -11 -7 -10 -11 5 -19 16 -9 13 -12 -23 -18 -43 -7 -62 -34
-24 -34 11 0 23 -5 27 -11 5 -8 -3 -10 -25 -7 -24 4 -31 1 -31 -13 0 -13 6
-16 23 -12 12 3 28 10 35 16 9 7 16 7 24 -1 8 -8 7 -13 -6 -18 -14 -5 -15 -9
-5 -15 23 -14 29 1 29 67 0 54 3 64 18 65 13 0 12 3 -5 11 -13 6 -23 18 -23
27 1 14 2 14 14 -1 7 -10 21 -18 32 -18 17 0 17 1 -2 15 -15 11 -16 15 -4 15
10 1 9 4 -5 10 -26 11 -37 11 -54 1z m17 -119 c2 -7 -3 -12 -12 -12 -9 0 -16
7 -16 16 0 17 22 14 28 -4z"/>
<path d="M4317 4830 c-6 -27 -10 -30 -49 -31 -43 -1 -43 -1 -10 -9 48 -11 49
-17 12 -55 -19 -19 -29 -35 -23 -35 7 0 18 7 26 15 17 16 27 10 27 -17 0 -15
8 -18 45 -18 40 0 47 3 55 26 16 41 13 44 -40 44 -34 0 -50 4 -50 13 0 25 24
37 80 39 l55 2 -52 3 c-49 4 -53 6 -53 29 0 34 -16 30 -23 -6z m66 -97 c15 -9
-14 -43 -38 -43 -26 0 -39 14 -32 34 5 13 53 19 70 9z"/>
<path d="M4591 4844 c10 -13 10 -17 -2 -25 -9 -5 17 -9 74 -9 52 0 86 4 82 9
-3 5 -30 7 -61 4 -49 -5 -57 -3 -70 16 -8 11 -20 21 -26 21 -6 0 -5 -6 3 -16z"/>
<path d="M4848 4821 c-2 -22 0 -37 4 -35 5 3 8 0 8 -5 0 -6 7 -11 15 -11 18 0
20 16 3 24 -7 3 -3 3 10 0 12 -3 22 -1 22 5 0 6 -12 11 -27 12 l-28 1 25 7
c24 7 24 7 5 20 -19 12 -19 12 2 8 13 -3 26 -1 29 4 3 5 -10 9 -29 9 -33 0
-35 -2 -39 -39z"/>
<path d="M544 4836 c-8 -22 -2 -27 16 -16 12 7 12 12 3 21 -10 10 -14 9 -19
-5z"/>
<path d="M840 4835 c-6 -8 -9 -18 -6 -24 4 -5 -2 -12 -11 -14 -14 -4 -13 -5 5
-6 26 -1 30 -21 5 -22 -15 0 -15 -2 -3 -7 19 -9 27 -66 8 -59 -7 2 -12 11 -12
20 1 11 -6 15 -25 13 -14 -2 -26 -9 -26 -17 0 -8 6 -13 13 -11 7 1 19 -4 27
-12 8 -8 20 -17 27 -20 10 -5 10 -7 1 -12 -18 -8 -16 -24 2 -24 12 0 15 13 15
60 0 54 3 62 23 69 22 9 22 9 -5 21 -28 13 -38 30 -18 30 6 0 10 -4 10 -10 0
-5 10 -10 23 -10 18 0 19 2 7 10 -8 5 -10 10 -5 10 11 1 -24 30 -36 30 -3 0
-12 -7 -19 -15z"/>
<path d="M2470 4825 c0 -33 15 -33 16 0 1 14 -2 25 -7 25 -5 0 -9 -11 -9 -25z"/>
<path d="M203 4809 c-6 -16 -22 -33 -35 -38 -17 -7 -18 -10 -5 -10 23 -1 22
-14 -4 -37 -11 -10 -26 -28 -31 -39 -9 -17 -6 -16 17 5 15 14 33 37 41 52 11
22 22 27 56 30 24 2 41 7 38 13 -3 5 -18 8 -33 6 -25 -2 -28 0 -23 17 11 33
-9 34 -21 1z"/>
<path d="M746 4830 c-2 -3 -6 -17 -10 -32 -6 -25 -4 -28 21 -29 23 0 25 -2 9
-8 -12 -4 -15 -10 -9 -14 6 -4 18 2 28 13 14 16 15 20 4 24 -42 13 -44 14 -24
16 l20 1 -20 9 c-18 8 -17 9 8 9 16 1 26 5 22 10 -6 10 -44 11 -49 1z"/>
<path d="M2615 4830 c3 -5 23 -10 43 -9 30 0 33 2 17 9 -28 12 -67 12 -60 0z"/>
<path d="M475 4808 c1 -20 6 -21 75 -20 40 1 75 4 78 7 3 3 -24 5 -60 5 -49 0
-67 4 -72 15 -8 23 -23 18 -21 -7z"/>
<path d="M2014 4798 c3 -18 8 -63 11 -100 4 -38 10 -68 13 -68 9 0 7 138 -3
173 -10 38 -27 34 -21 -5z"/>
<path d="M3151 4763 c-6 -38 -14 -81 -18 -98 -4 -24 -3 -28 8 -18 7 7 16 39
20 70 4 32 10 70 14 86 4 15 3 27 -2 27 -6 0 -15 -30 -22 -67z"/>
<path d="M3100 4788 c0 -25 3 -29 10 -18 13 20 13 50 0 50 -5 0 -10 -15 -10
-32z"/>
<path d="M4533 4803 c9 -2 23 -2 30 0 6 3 -1 5 -18 5 -16 0 -22 -2 -12 -5z"/>
<path d="M1761 4784 c0 -11 3 -14 6 -6 3 7 2 16 -1 19 -3 4 -6 -2 -5 -13z"/>
<path d="M2749 4789 c16 -6 28 -6 35 1 7 7 -1 10 -24 9 -33 0 -34 -1 -11 -10z"/>
<path d="M415 4779 c-16 -6 -14 -8 13 -8 33 -1 41 4 20 12 -7 2 -22 1 -33 -4z"/>
<path d="M4563 4783 c-7 -3 -13 -19 -13 -37 0 -31 2 -32 31 -28 28 4 30 2 24
-17 -4 -12 -2 -21 4 -21 11 0 12 4 15 70 1 30 -2 35 -24 36 -14 1 -31 0 -37
-3z m40 -20 c-7 -2 -21 -2 -30 0 -10 3 -4 5 12 5 17 0 24 -2 18 -5z"/>
<path d="M2093 4725 c0 -33 2 -45 4 -27 2 18 2 45 0 60 -2 15 -4 0 -4 -33z"/>
<path d="M2469 4778 c-5 -26 -6 -58 -1 -58 4 0 14 5 22 10 12 7 12 10 1 10 -7
0 -11 6 -8 15 4 8 2 17 -3 20 -6 4 -10 5 -11 3z"/>
<path d="M469 4762 c-22 -3 -28 -9 -31 -38 -4 -33 -3 -34 30 -34 28 0 32 -3
23 -13 -11 -14 -6 -27 11 -27 10 0 11 108 1 112 -5 2 -20 2 -34 0z m18 -48
c-3 -3 -12 -4 -19 -1 -8 3 -5 6 6 6 11 1 17 -2 13 -5z"/>
<path d="M2578 4763 c23 -2 59 -2 80 0 20 2 1 4 -43 4 -44 0 -61 -2 -37 -4z"/>
<path d="M2760 4760 c0 -5 5 -10 10 -10 6 0 10 5 10 10 0 6 -4 10 -10 10 -5 0
-10 -4 -10 -10z"/>
<path d="M1752 4740 c0 -14 2 -19 5 -12 2 6 2 18 0 25 -3 6 -5 1 -5 -13z"/>
<path d="M542 4725 c0 -16 2 -22 5 -12 2 9 2 23 0 30 -3 6 -5 -1 -5 -18z"/>
<path d="M3212 4725 c0 -16 2 -22 5 -12 2 9 2 23 0 30 -3 6 -5 -1 -5 -18z"/>
<path d="M220 4724 c-19 -7 -28 -13 -19 -13 17 -1 33 -27 21 -34 -4 -3 -24 -7
-45 -11 -22 -4 -35 -11 -31 -17 4 -7 10 -7 17 0 6 6 47 12 92 13 53 1 64 3 33
5 -43 4 -48 7 -48 29 0 17 5 24 20 24 11 0 20 5 20 10 0 13 -16 11 -60 -6z"/>
<path d="M2761 4723 c-1 -25 -5 -27 -75 -23 -33 1 -46 -1 -42 -9 4 -6 32 -11
62 -11 30 0 54 -4 54 -10 0 -5 -6 -10 -12 -10 -9 0 -8 -3 2 -10 20 -12 32 29
20 68 -7 24 -8 24 -9 5z"/>
<path d="M2465 4700 c3 -5 8 -10 11 -10 2 0 4 5 4 10 0 6 -5 10 -11 10 -5 0
-7 -4 -4 -10z"/>
<path d="M3001 4684 c0 -11 3 -14 6 -6 3 7 2 16 -1 19 -3 4 -6 -2 -5 -13z"/>
<path d="M4685 4687 c-15 -12 -16 -15 -2 -20 9 -3 18 1 21 10 9 22 3 25 -19
10z"/>
<path d="M760 4674 c0 -11 5 -14 16 -10 9 3 23 6 32 7 14 0 13 2 -3 9 -31 13
-45 11 -45 -6z"/>
<path d="M1725 4623 c-6 -60 -30 -133 -45 -133 -3 0 -11 -15 -19 -32 -8 -18
-22 -50 -32 -72 -10 -21 -16 -42 -14 -47 3 -4 1 -10 -5 -14 -5 -3 -10 -18 -9
-33 1 -26 1 -26 10 5 5 18 14 35 19 38 6 3 10 19 10 35 0 16 11 42 25 58 14
17 25 37 25 46 0 9 5 16 10 16 6 0 15 11 20 25 5 14 17 28 25 31 20 8 19 24
-1 24 -14 0 -15 7 -9 46 3 26 9 53 12 60 3 8 1 14 -5 14 -6 0 -13 -30 -17 -67z"/>
<path d="M3487 4608 c6 -88 0 -108 -17 -65 -6 16 -9 7 -8 -38 0 -33 3 -50 5
-37 6 29 21 28 32 -2 5 -13 17 -26 25 -29 9 -4 16 -17 16 -29 0 -13 9 -31 20
-41 11 -9 20 -28 20 -42 0 -14 5 -25 10 -25 24 0 5 54 -47 135 -21 31 -33 63
-34 85 0 19 -6 67 -14 105 l-13 70 5 -87z"/>
<path d="M561 4661 c-9 -6 -10 -11 -2 -15 13 -8 31 1 31 15 0 11 -11 11 -29 0z"/>
<path d="M2460 4661 c0 -6 17 -7 38 -4 51 8 53 13 4 13 -23 0 -42 -4 -42 -9z"/>
<path d="M3120 4587 c0 -24 -4 -47 -8 -52 -12 -13 -35 -125 -28 -132 6 -6 13
10 18 41 2 11 8 21 14 23 15 5 134 -198 134 -229 0 -13 6 -33 14 -43 13 -18
14 -14 9 30 -6 63 -30 116 -54 122 -10 3 -19 13 -19 23 0 10 -7 23 -15 30 -8
7 -15 19 -15 28 0 9 -10 26 -22 40 -20 20 -23 33 -20 93 1 38 0 69 -3 69 -3 0
-5 -19 -5 -43z"/>
<path d="M2056 4573 c4 -33 1 -46 -15 -62 -12 -12 -21 -30 -21 -40 0 -11 -4
-23 -10 -26 -5 -3 -10 -16 -10 -28 1 -15 11 -3 31 37 l31 58 14 -27 c8 -15 14
-40 14 -56 0 -16 5 -29 11 -29 7 0 9 9 6 23 -3 12 -9 40 -13 62 -3 22 -10 45
-14 50 -5 6 -13 26 -19 45 l-10 35 5 -42z"/>
<path d="M2498 4583 c12 -2 32 -2 45 0 12 2 2 4 -23 4 -25 0 -35 -2 -22 -4z"/>
<path d="M2698 4573 c12 -2 32 -2 45 0 12 2 2 4 -23 4 -25 0 -35 -2 -22 -4z"/>
<path d="M2493 4543 c15 -2 37 -2 50 0 12 2 0 4 -28 4 -27 0 -38 -2 -22 -4z"/>
<path d="M1962 4510 c0 -14 2 -19 5 -12 2 6 2 18 0 25 -3 6 -5 1 -5 -13z"/>
<path d="M3362 4490 c0 -19 2 -27 5 -17 2 9 2 25 0 35 -3 9 -5 1 -5 -18z"/>
<path d="M2493 4473 c15 -2 37 -2 50 0 12 2 0 4 -28 4 -27 0 -38 -2 -22 -4z"/>
<path d="M2738 4463 c7 -3 16 -2 19 1 4 3 -2 6 -13 5 -11 0 -14 -3 -6 -6z"/>
<path d="M2508 4433 c28 -2 76 -2 105 0 28 2 5 3 -53 3 -58 0 -81 -1 -52 -3z"/>
<path d="M2728 4423 c7 -3 16 -2 19 1 4 3 -2 6 -13 5 -11 0 -14 -3 -6 -6z"/>
<path d="M2578 4393 c18 -2 45 -2 60 0 15 2 0 4 -33 4 -33 0 -45 -2 -27 -4z"/>
<path d="M4654 4373 c2 -16 5 -31 5 -35 1 -5 22 -8 48 -8 25 0 43 3 39 7 -4 4
-23 6 -42 4 -19 -1 -34 2 -34 8 0 6 14 11 30 11 17 0 30 5 30 10 0 6 -13 10
-30 10 -16 0 -30 5 -30 10 0 6 -5 10 -10 10 -6 0 -9 -12 -6 -27z"/>
<path d="M4608 4378 c-4 -9 -17 -18 -30 -21 -20 -4 -20 -4 5 -6 35 -1 35 -19
0 -23 -14 -2 -28 -9 -31 -17 -3 -10 2 -11 19 -6 44 14 55 28 49 60 -4 23 -7
26 -12 13z"/>
<path d="M3072 4360 c0 -14 2 -19 5 -12 2 6 2 18 0 25 -3 6 -5 1 -5 -13z"/>
<path d="M4370 4370 c0 -5 18 -10 40 -10 22 0 40 5 40 10 0 6 -18 10 -40 10
-22 0 -40 -4 -40 -10z"/>
<path d="M1968 4330 c-18 -24 -28 -51 -28 -73 0 -19 -7 -40 -15 -47 -8 -7 -15
-17 -15 -22 0 -5 -22 -39 -50 -75 -27 -36 -50 -71 -50 -77 0 -6 6 -2 12 9 6
11 14 22 17 25 3 3 24 28 46 55 21 28 42 52 46 55 4 3 10 19 13 37 4 18 19 55
32 84 32 65 27 79 -8 29z"/>
<path d="M2538 4353 c39 -2 105 -2 145 0 39 1 7 3 -73 3 -80 0 -112 -2 -72 -3z"/>
<path d="M4284 4353 l59 -4 -5 -70 c-3 -38 -1 -69 3 -69 8 0 14 37 10 67 -2
18 17 25 39 13 11 -6 20 -7 20 -1 0 5 -14 14 -31 20 -24 8 -29 15 -24 31 6 19
2 20 -62 18 l-68 -2 59 -3z"/>
<path d="M2113 4290 c0 -36 2 -50 4 -32 2 17 2 47 0 65 -2 17 -4 3 -4 -33z"/>
<path d="M5420 4320 c0 -5 5 -10 10 -10 6 0 10 5 10 10 0 6 -4 10 -10 10 -5 0
-10 -4 -10 -10z"/>
<path d="M530 4305 c-14 -8 -33 -14 -43 -15 -10 0 -15 -5 -12 -10 4 -7 12 -7
25 0 13 7 21 7 25 0 4 -6 -9 -17 -27 -24 l-33 -14 45 3 c87 6 88 6 60 14 -28
8 -41 41 -16 41 9 0 16 5 16 10 0 13 -10 12 -40 -5z"/>
<path d="M2498 4308 c8 -8 20 -8 44 -1 l33 11 -44 1 c-34 1 -42 -2 -33 -11z"/>
<path d="M2610 4310 c0 -6 7 -10 15 -10 8 0 15 2 15 4 0 2 -7 6 -15 10 -8 3
-15 1 -15 -4z"/>
<path d="M3063 4285 c0 -22 2 -30 4 -17 2 12 2 30 0 40 -3 9 -5 -1 -4 -23z"/>
<path d="M215 4288 c-6 -13 -21 -28 -35 -35 -18 -9 -20 -13 -7 -13 25 0 21
-15 -15 -56 -18 -21 -26 -35 -18 -33 8 3 31 26 50 52 31 41 39 47 72 47 21 0
38 5 38 11 0 7 -10 9 -25 5 -35 -9 -48 0 -35 25 8 14 7 19 -2 19 -7 0 -18 -10
-23 -22z"/>
<path d="M2718 4303 c7 -3 16 -2 19 1 4 3 -2 6 -13 5 -11 0 -14 -3 -6 -6z"/>
<path d="M4622 4303 c-16 -3 -22 -9 -18 -20 3 -8 6 -17 6 -19 0 -2 10 -4 23
-4 16 0 18 3 8 9 -18 11 -5 31 20 31 14 0 19 -7 19 -25 0 -17 -6 -25 -17 -25
-15 0 -14 -2 3 -15 15 -12 16 -16 5 -24 -9 -6 -10 -11 -2 -15 21 -13 31 6 31
60 0 53 -1 54 -27 53 -16 -1 -38 -4 -51 -6z"/>
<path d="M2780 4260 c0 -5 5 -10 11 -10 5 0 7 5 4 10 -3 6 -8 10 -11 10 -2 0
-4 -4 -4 -10z"/>
<path d="M1586 4250 c-3 -8 -10 -35 -15 -60 -5 -25 -12 -56 -16 -70 -4 -16 -1
-13 9 9 9 18 16 42 16 53 0 11 5 28 11 39 6 11 8 25 6 32 -3 8 -7 7 -11 -3z"/>
<path d="M3614 4228 l5 -37 -52 -11 c-67 -15 -217 -40 -239 -40 -10 0 -18 7
-18 15 0 8 -5 15 -11 15 -6 0 -9 -7 -5 -15 3 -8 -2 -19 -12 -24 -23 -12 -192
-35 -199 -27 -4 4 -10 25 -14 49 l-7 42 1 -47 c0 -27 -3 -52 -9 -58 -5 -5 -46
-11 -89 -12 -47 -2 -85 -8 -93 -15 -19 -19 -82 -17 -82 2 0 21 -7 19 -75 -19
-66 -38 -66 -38 38 -51 43 -6 47 -4 47 15 0 17 4 19 25 14 14 -3 25 -2 25 4 0
10 75 26 172 38 l56 6 13 -58 c7 -33 16 -63 21 -69 4 -5 8 -20 8 -35 0 -14 4
-32 10 -40 8 -12 10 -12 16 3 3 9 2 23 -4 30 -6 6 -13 30 -17 52 -4 22 -11 45
-15 50 -11 14 -18 65 -11 69 8 5 152 34 201 41 19 2 80 13 135 23 185 36 194
36 204 10 10 -23 10 -23 10 4 1 31 -5 29 191 58 74 11 139 25 145 31 11 11
-83 2 -121 -11 -11 -5 -65 -14 -120 -21 -54 -6 -101 -13 -104 -13 -3 -1 -11
15 -18 34 l-13 35 5 -37z"/>
<path d="M3452 4220 c0 -19 2 -27 5 -17 2 9 2 25 0 35 -3 9 -5 1 -5 -18z"/>
<path d="M4600 4230 c0 -5 9 -10 20 -10 11 0 20 5 20 10 0 6 -9 10 -20 10 -11
0 -20 -4 -20 -10z"/>
<path d="M475 4214 c-28 -7 -35 -11 -16 -9 18 3 67 5 109 5 41 0 73 2 71 4
-13 11 -121 11 -164 0z"/>
<path d="M2830 4210 c0 -5 5 -10 10 -10 6 0 10 5 10 10 0 6 -4 10 -10 10 -5 0
-10 -4 -10 -10z"/>
<path d="M226 4201 c-18 -7 -18 -8 -3 -14 27 -10 20 -35 -10 -40 -20 -3 -14
-5 17 -6 25 -1 57 -4 72 -6 15 -2 30 1 33 6 4 5 -13 9 -38 9 -42 0 -44 2 -40
24 3 15 13 27 27 29 14 3 12 4 -9 5 -16 0 -39 -3 -49 -7z"/>
<path d="M2097 4193 c-4 -3 -7 -19 -7 -34 0 -15 -4 -31 -10 -34 -5 -3 -10 -20
-10 -38 0 -45 15 -22 29 46 12 57 12 74 -2 60z"/>
<path d="M523 4153 c-14 -29 -9 -43 8 -26 6 6 9 20 7 32 -3 19 -4 19 -15 -6z"/>
<path d="M2510 4120 c0 -5 5 -10 11 -10 5 0 7 5 4 10 -3 6 -8 10 -11 10 -2 0
-4 -4 -4 -10z"/>
<path d="M3654 4099 c4 -13 11 -47 16 -75 4 -28 15 -67 24 -87 14 -34 13 -37
-2 -47 -14 -7 -14 -9 -2 -10 14 0 35 -43 60 -122 6 -20 18 -39 26 -42 8 -3 12
-10 9 -16 -3 -5 1 -10 10 -10 9 0 13 -4 10 -10 -3 -5 -3 -10 2 -10 13 0 68
-51 65 -61 -1 -5 4 -9 10 -9 7 0 5 -5 -5 -11 -9 -6 -26 -7 -37 -4 -11 4 -20 2
-20 -4 0 -6 -6 -11 -14 -11 -8 0 -16 -7 -20 -15 -3 -8 -12 -15 -21 -15 -8 0
-15 -4 -15 -9 0 -12 19 -18 82 -27 26 -3 47 -9 46 -13 -1 -3 5 -18 12 -34 16
-32 6 -49 -14 -22 -14 19 -41 12 -29 -8 4 -7 9 -21 10 -32 2 -10 7 -22 11 -25
4 -3 8 -14 10 -25 2 -11 10 -30 18 -42 18 -29 18 -33 -5 -33 -17 0 -36 25 -33
43 1 4 -2 7 -8 7 -5 0 -7 7 -4 15 4 8 1 15 -6 15 -6 0 -9 4 -5 9 3 5 1 12 -5
16 -5 3 -10 17 -10 31 0 25 -14 32 -26 12 -5 -7 -3 -8 6 -3 10 6 12 4 7 -10
-4 -10 -2 -34 4 -54 6 -20 14 -48 19 -63 6 -21 5 -28 -5 -28 -13 0 -48 77 -48
106 0 8 -4 14 -9 14 -4 0 -8 7 -8 15 0 25 -17 17 -22 -10 -3 -14 -2 -25 3 -25
4 0 10 -9 13 -20 3 -11 9 -29 12 -40 10 -37 -14 -21 -34 23 -20 42 -34 78 -36
87 -1 3 -5 11 -9 18 -5 6 -5 17 -1 24 4 7 3 8 -4 4 -7 -4 -12 -2 -12 4 0 6
-11 28 -25 49 -17 28 -21 41 -12 44 7 3 4 6 -5 6 -10 1 -18 5 -18 10 0 5 8 12
18 14 13 4 12 5 -5 6 -17 1 -21 6 -18 26 1 14 -1 28 -6 31 -4 2 -6 11 -2 19 3
8 0 15 -7 15 -6 0 -9 4 -6 8 3 5 -1 20 -9 35 -7 14 -11 28 -7 31 3 3 0 6 -6 6
-7 0 -12 7 -12 15 0 8 -5 15 -11 15 -5 0 -7 5 -4 10 3 6 -1 17 -10 26 -9 9
-14 23 -11 30 3 8 0 14 -7 14 -9 0 -9 2 0 8 8 5 2 12 -18 21 -16 7 -27 17 -24
21 3 5 -3 11 -13 14 -9 3 -26 22 -36 41 -11 19 -21 33 -24 31 -5 -5 65 -124
84 -143 7 -7 25 -39 39 -70 15 -32 34 -71 42 -88 8 -16 17 -52 20 -80 3 -27
17 -70 30 -95 62 -110 86 -158 104 -206 13 -33 28 -55 44 -62 14 -7 36 -17 50
-24 20 -9 28 -9 37 0 7 7 24 12 38 12 38 0 90 28 90 49 0 10 -16 57 -35 106
-19 49 -33 91 -30 93 2 3 19 -2 37 -11 29 -14 35 -14 48 -2 11 12 12 18 2 27
-21 21 -14 38 16 38 38 0 223 28 230 35 10 9 -61 5 -158 -10 -52 -8 -101 -15
-109 -15 -7 0 -54 42 -105 94 -83 85 -94 101 -110 158 -34 121 -57 193 -66
209 -5 9 -12 33 -15 53 -4 20 -12 39 -18 43 -7 4 -8 -2 -3 -18z m311 -580 c16
-16 -30 -10 -51 7 -18 15 -18 15 11 9 17 -4 34 -11 40 -16z m-50 -119 c-3 -5
-1 -10 5 -10 7 0 10 -7 6 -15 -3 -8 -1 -15 4 -15 6 0 9 -3 9 -7 -1 -5 -1 -10
1 -13 1 -3 3 -15 6 -28 8 -42 -15 -10 -64 91 -2 4 6 7 18 7 12 0 18 -4 15 -10z"/>
<path d="M1050 4093 c1 -5 50 -44 109 -88 83 -61 106 -83 99 -93 -6 -7 -8 -16
-4 -19 9 -9 119 -43 124 -39 1 2 -10 24 -25 50 -24 40 -32 46 -53 41 -20 -4
-46 11 -130 75 -102 77 -120 88 -120 73z"/>
<path d="M3330 4096 c0 -10 40 -76 46 -76 10 0 2 19 -21 50 -14 19 -25 30 -25
26z"/>
<path d="M1533 4062 c-7 -15 -15 -40 -19 -57 -7 -31 -53 -146 -82 -203 -9 -19
-35 -48 -57 -65 -49 -39 -79 -71 -107 -117 -12 -19 -34 -50 -50 -68 -40 -46
-37 -56 17 -49 50 7 55 1 30 -46 -8 -15 -17 -45 -20 -65 -4 -20 -9 -45 -11
-54 -3 -10 4 -25 15 -35 12 -10 21 -23 21 -30 0 -23 117 -17 147 7 14 11 32
20 40 20 7 0 27 30 44 68 17 37 50 108 74 157 44 88 72 193 45 169 -6 -6 -14
-30 -17 -53 -3 -22 -10 -41 -15 -41 -5 0 -6 -5 -3 -10 3 -6 -1 -13 -9 -16 -9
-3 -14 -9 -12 -13 6 -10 -30 -71 -38 -64 -4 4 -4 0 0 -10 5 -13 1 -17 -17 -18
-17 -1 -19 -3 -6 -6 9 -2 17 -7 17 -10 0 -9 -35 -68 -42 -71 -4 -2 -4 -10 -1
-18 3 -8 0 -14 -6 -14 -6 0 -11 -7 -11 -15 0 -16 -12 -20 -23 -8 -4 3 -3 11 2
17 17 23 40 106 30 112 -14 8 -20 1 -22 -25 -1 -11 -5 -21 -9 -21 -4 0 -8 -9
-8 -20 0 -11 -4 -20 -10 -20 -5 0 -7 -7 -4 -14 7 -18 -26 -77 -38 -70 -11 7
-10 44 0 44 5 0 9 15 10 32 0 18 5 34 10 36 6 2 8 12 5 22 -3 12 0 20 6 20 7
0 9 5 6 10 -3 6 -1 10 6 10 7 0 10 2 8 5 -11 10 -47 -8 -42 -21 3 -8 0 -14 -6
-14 -7 0 -11 -6 -10 -12 1 -7 -3 -26 -9 -41 -7 -16 -12 -33 -12 -38 0 -5 -5
-9 -11 -9 -5 0 -8 -4 -5 -9 8 -13 -20 -45 -33 -37 -6 4 -8 13 -4 19 4 7 9 21
10 32 2 10 8 22 14 26 8 5 8 8 0 10 -9 3 -8 13 3 34 9 17 16 36 16 43 0 6 6
12 13 12 8 0 8 3 -2 9 -17 11 -41 -9 -41 -33 0 -9 -7 -16 -15 -16 -8 0 -15 7
-15 15 0 8 4 15 10 15 5 0 7 7 4 15 -4 9 0 15 8 15 11 0 13 9 10 32 -4 25 -2
30 10 25 12 -4 14 0 11 14 -4 15 -11 18 -27 13 -11 -4 -24 -11 -27 -17 -4 -5
-15 -7 -25 -3 -16 6 -15 8 4 27 12 11 22 24 22 30 0 5 11 21 25 35 14 14 25
29 25 34 0 15 36 47 61 55 30 10 45 25 54 55 4 14 13 35 21 47 8 12 15 31 17
41 2 11 11 27 20 36 9 10 18 28 18 42 2 28 2 31 16 64 19 47 24 68 16 73 -5 3
-14 -6 -20 -21z m-283 -532 c0 -5 -4 -10 -10 -10 -5 0 -10 5 -10 10 0 6 5 10
10 10 6 0 10 -4 10 -10z m50 -130 c0 -5 -4 -10 -10 -10 -5 0 -9 -10 -7 -22 1
-14 -4 -23 -14 -26 -17 -3 -19 18 -5 51 9 18 36 24 36 7z"/>
<path d="M2056 4014 c-4 -20 -5 -38 -3 -40 3 -3 8 11 11 32 4 20 5 38 3 40 -3
3 -8 -11 -11 -32z"/>
<path d="M1784 4006 c-3 -9 -12 -16 -20 -16 -8 0 -14 -7 -14 -15 0 -8 -3 -15
-7 -15 -5 0 -13 -10 -19 -23 -26 -52 -59 -112 -66 -117 -3 -3 -10 -18 -13 -33
-4 -15 -11 -27 -15 -27 -4 0 -7 -11 -7 -25 0 -33 -2 -34 48 60 23 44 61 111
86 149 24 37 42 71 39 74 -3 2 -8 -3 -12 -12z"/>
<path d="M525 3986 c-11 -7 -29 -16 -40 -19 -12 -4 -9 -5 8 -3 32 4 47 -11 21
-21 -16 -6 -16 -7 1 -13 9 -3 32 -4 49 -1 30 4 30 5 6 11 -28 7 -41 40 -16 40
9 0 16 5 16 10 0 14 -22 12 -45 -4z"/>
<path d="M212 3965 c-7 -14 -22 -30 -34 -35 -18 -7 -19 -9 -5 -9 25 -1 21 -16
-14 -56 -34 -39 -29 -49 6 -11 16 17 29 22 49 19 37 -7 36 -43 -1 -43 -16 0
-35 -5 -43 -11 -12 -9 -12 -10 3 -5 10 3 53 7 95 8 55 1 63 3 30 5 -42 4 -47
7 -45 26 1 14 11 25 27 29 14 4 2 5 -26 2 -32 -4 -54 -1 -59 5 -3 6 -1 11 4
11 6 0 11 7 11 15 0 11 11 15 39 15 22 0 43 5 46 11 11 17 -3 23 -20 9 -21
-18 -45 -6 -38 19 8 30 -11 26 -25 -4z"/>
<path d="M855 3970 c3 -6 -4 -10 -17 -10 -13 0 -29 -5 -36 -12 -9 -9 -12 -8
-12 5 0 12 -8 17 -30 17 -31 0 -31 0 -29 -51 2 -47 4 -50 26 -44 18 4 23 1 23
-14 0 -11 -8 -25 -17 -30 -16 -9 -14 -10 8 -11 23 0 26 3 21 25 -3 18 0 25 12
25 9 0 16 -4 16 -10 0 -18 18 -10 25 10 9 28 25 15 25 -19 0 -35 41 -61 65
-41 24 20 18 26 -20 22 -27 -3 -35 0 -35 11 0 9 10 17 23 19 16 2 23 11 25 31
2 18 -1 27 -11 27 -10 0 -13 -8 -9 -25 3 -19 0 -25 -13 -25 -12 0 -15 5 -10
20 5 16 2 20 -17 20 -13 0 -29 5 -35 11 -7 7 -12 3 -17 -15 -8 -30 -26 -35
-26 -6 0 34 77 57 123 36 12 -6 17 -4 17 8 0 10 -9 16 -25 16 -14 0 -25 5 -25
10 0 6 -7 10 -16 10 -8 0 -12 -4 -9 -10z m-80 -21 c10 -15 -1 -23 -20 -15 -9
3 -13 10 -10 16 8 13 22 13 30 -1z m5 -44 c0 -8 -9 -15 -20 -15 -20 0 -26 11
-13 23 12 13 33 7 33 -8z"/>
<path d="M2036 3952 c-3 -5 -8 -29 -11 -53 l-5 -44 15 50 c13 46 14 68 1 47z"/>
<path d="M3046 3921 c-4 -7 -5 -15 -2 -18 9 -9 19 4 14 18 -4 11 -6 11 -12 0z"/>
<path d="M480 3901 c0 -12 41 -17 103 -13 75 6 55 22 -28 22 -41 0 -75 -4 -75
-9z"/>
<path d="M2990 3891 c0 -5 5 -13 10 -16 6 -3 10 -2 10 4 0 5 -4 13 -10 16 -5
3 -10 2 -10 -4z"/>
<path d="M438 3883 c6 -2 18 -2 25 0 6 3 1 5 -13 5 -14 0 -19 -2 -12 -5z"/>
<path d="M531 3855 c0 -12 -6 -26 -13 -33 -6 -6 -9 -15 -5 -19 13 -13 29 14
24 43 -2 18 -5 21 -6 9z"/>
<path d="M721 3844 c0 -11 3 -14 6 -6 3 7 2 16 -1 19 -3 4 -6 -2 -5 -13z"/>
<path d="M3140 3822 c0 -17 -5 -34 -10 -37 -8 -5 -7 -11 1 -21 9 -11 4 -21
-27 -50 l-39 -36 36 26 c20 14 39 26 42 26 19 0 2 -28 -40 -68 -41 -37 -42
-39 -8 -13 22 17 45 31 52 31 19 0 5 -26 -22 -40 -13 -7 -26 -19 -29 -26 -4
-11 -2 -11 14 -1 11 6 20 15 20 19 0 5 7 8 15 8 18 0 18 -5 5 -31 -7 -12 -7
-19 -1 -19 6 0 9 -21 7 -47 -2 -27 1 -53 5 -59 6 -7 3 -16 -6 -24 -14 -11 -13
-14 2 -25 14 -10 15 -16 5 -28 -7 -8 -10 -21 -6 -30 3 -8 1 -24 -5 -35 -8 -15
-8 -22 2 -25 8 -3 5 -12 -12 -30 -23 -25 -23 -26 -2 -20 17 4 20 2 15 -13 -4
-11 -11 -25 -17 -31 -6 -9 -6 -13 2 -13 16 0 14 -25 -4 -40 -11 -9 -12 -16 -4
-26 8 -10 7 -19 -4 -35 -9 -12 -13 -28 -10 -35 3 -8 0 -14 -6 -14 -6 0 -11 5
-11 10 0 7 -6 7 -20 0 -17 -9 -20 -8 -20 9 0 16 -6 19 -40 17 -21 -1 -42 -5
-46 -9 -4 -4 -23 -8 -43 -8 -20 -1 -28 -3 -18 -6 9 -2 17 -9 17 -14 0 -5 7 -9
15 -9 9 0 18 -7 21 -15 4 -8 10 -12 16 -9 5 3 17 -1 27 -10 16 -15 19 -15 36
4 10 11 26 20 37 20 14 0 18 -8 18 -37 0 -20 -7 -45 -17 -55 -9 -11 -11 -18
-5 -18 16 0 15 -25 -2 -39 -12 -10 -21 -81 -11 -81 4 0 51 152 60 193 4 22 11
27 35 27 31 0 386 -42 505 -60 146 -21 303 -35 293 -25 -6 6 -55 13 -278 39
-249 30 -534 67 -538 71 -2 2 1 27 7 57 33 166 38 372 15 601 -12 122 -24 177
-24 109z"/>
<path d="M4656 3829 c-28 -9 -44 -19 -37 -24 7 -3 18 -2 25 4 16 14 29 2 16
-14 -15 -18 9 -25 51 -16 l34 7 -32 7 c-38 8 -43 24 -11 36 43 16 1 16 -46 0z"/>
<path d="M2835 3830 c3 -5 8 -10 11 -10 2 0 4 5 4 10 0 6 -5 10 -11 10 -5 0
-7 -4 -4 -10z"/>
<path d="M4367 3810 c-6 -27 -10 -30 -49 -31 -38 -1 -39 -2 -14 -8 42 -9 42
-22 -1 -67 l-38 -39 37 22 37 22 3 -22 c2 -18 11 -22 43 -25 50 -3 63 5 67 43
l3 30 -53 -3 -52 -4 11 26 c11 24 18 26 73 28 l61 1 -55 6 c-50 5 -55 8 -52
29 5 33 -15 27 -21 -8z m61 -112 c3 -14 -4 -18 -32 -18 -36 0 -52 12 -41 31
11 17 69 6 73 -13z"/>
<path d="M2082 3823 c-7 -2 -17 -14 -23 -25 -8 -16 -8 -19 1 -13 7 4 15 3 19
-2 11 -18 92 -64 101 -58 6 4 10 1 10 -4 0 -6 7 -11 16 -11 10 0 14 -5 10 -15
-4 -13 -2 -13 14 -5 11 6 21 6 24 1 4 -5 24 -12 46 -16 22 -4 40 -11 40 -17 0
-6 7 -8 15 -5 8 4 17 2 20 -4 4 -5 11 -7 16 -3 5 3 16 0 24 -6 12 -10 18 -10
30 0 12 10 16 9 21 -3 4 -12 16 -14 46 -11 35 4 40 3 34 -12 -6 -15 -5 -15 18
0 15 10 27 12 31 6 4 -7 13 -7 25 0 26 14 33 13 27 -4 -4 -10 5 -8 30 7 26 15
38 18 41 9 3 -9 9 -8 25 3 12 8 30 15 40 15 17 0 18 -2 6 -17 -7 -10 -1 -7 13
6 15 13 39 24 55 26 15 1 44 12 63 23 41 26 54 28 47 7 -6 -15 100 62 123 89
20 25 3 19 -61 -20 -32 -20 -65 -34 -73 -31 -8 3 -17 0 -19 -7 -7 -17 -113
-50 -133 -42 -10 4 -22 -1 -29 -11 -12 -16 -32 -18 -187 -18 -133 0 -179 4
-198 15 -14 8 -29 13 -34 12 -23 -7 -179 58 -201 84 -5 6 -23 15 -39 18 -22 5
-27 11 -23 26 3 11 4 20 4 19 -1 0 -8 -3 -15 -6z"/>
<path d="M2010 3800 c0 -5 5 -10 10 -10 6 0 10 5 10 10 0 6 -4 10 -10 10 -5 0
-10 -4 -10 -10z"/>
<path d="M2990 3779 c0 -5 5 -7 10 -4 6 3 10 8 10 11 0 2 -4 4 -10 4 -5 0 -10
-5 -10 -11z"/>
<path d="M2010 3760 c0 -5 5 -10 10 -10 6 0 10 5 10 10 0 6 -4 10 -10 10 -5 0
-10 -4 -10 -10z"/>
<path d="M4645 3749 l-30 -7 28 -1 c24 -1 27 -5 27 -36 0 -19 -5 -35 -11 -35
-5 0 -7 -4 -4 -10 14 -23 25 -7 25 35 l0 45 53 1 c28 0 48 2 42 4 -24 8 -102
11 -130 4z"/>
<path d="M2081 3733 c-5 -10 -10 -22 -11 -28 -3 -15 -10 -20 -10 -6 0 8 -9 7
-30 -6 -19 -11 -30 -25 -30 -40 0 -30 4 -29 42 7 17 17 35 30 40 30 5 0 8 8 6
18 -2 10 3 17 14 17 9 0 20 4 25 9 4 5 3 6 -4 2 -7 -4 -13 -2 -13 3 0 17 -18
13 -29 -6z"/>
<path d="M4588 3733 c7 -3 16 -2 19 1 4 3 -2 6 -13 5 -11 0 -14 -3 -6 -6z"/>
<path d="M2079 3660 c-19 -16 -29 -30 -22 -30 6 0 13 3 15 8 2 4 16 17 32 30
16 12 24 22 19 22 -6 0 -26 -13 -44 -30z"/>
<path d="M2851 3600 c-13 -11 -19 -20 -14 -20 6 0 18 9 28 20 23 25 17 25 -14
0z"/>
<path d="M2005 3600 c-3 -5 -1 -10 4 -10 6 0 11 5 11 10 0 6 -2 10 -4 10 -3 0
-8 -4 -11 -10z"/>
<path d="M2059 3593 c-13 -17 -13 -17 6 -3 11 8 22 16 24 17 2 2 0 3 -6 3 -6
0 -17 -8 -24 -17z"/>
<path d="M2403 3571 c-26 -22 -61 -50 -77 -63 -28 -24 -79 -28 -92 -7 -9 15
-19 10 -53 -21 -41 -39 -40 -49 1 -15 33 28 52 19 26 -12 -11 -14 -8 -13 15 2
41 26 45 10 6 -22 -43 -35 -89 -82 -89 -89 0 -4 31 21 69 55 38 34 74 61 80
61 7 0 10 -3 8 -7 -3 -5 10 -8 29 -9 42 -1 51 -9 33 -31 -13 -17 -13 -17 7 0
22 18 59 24 49 7 -3 -5 -1 -10 4 -10 6 0 11 4 11 9 0 14 31 22 45 11 8 -6 18
-5 31 5 24 18 35 18 59 1 18 -13 17 -15 -11 -42 -17 -16 -23 -23 -14 -16 9 6
21 12 27 12 12 0 12 -109 0 -127 -5 -7 -4 -13 1 -13 12 0 12 -79 0 -87 -6 -3
-5 -9 3 -14 12 -7 12 -12 1 -30 -11 -17 -11 -23 -2 -29 8 -5 9 -14 3 -26 -5
-11 -8 -40 -7 -67 1 -26 -2 -50 -7 -53 -5 -3 -3 -13 3 -24 9 -14 9 -22 -2 -35
-12 -14 -12 -18 0 -25 11 -7 12 -13 2 -32 -7 -13 -15 -61 -20 -108 l-7 -85
-145 -5 -145 -6 137 -2 c78 -1 139 -6 143 -12 4 -6 -31 -10 -97 -10 -72 0 -99
-3 -88 -10 9 -6 44 -8 87 -4 73 6 107 -1 82 -17 -10 -6 -11 -9 -1 -9 6 0 12
-7 12 -15 0 -10 -11 -15 -37 -16 l-38 -2 40 -7 c42 -7 34 -16 -20 -23 -27 -4
-26 -4 7 -6 65 -2 54 -21 -14 -23 -59 -1 -60 -2 -13 -5 81 -6 85 -17 10 -23
l-70 -6 63 -2 c69 -2 86 -21 20 -24 -41 -1 -41 -1 -8 -5 33 -4 68 -23 42 -23
-7 0 -12 -5 -12 -11 0 -14 -25 -39 -39 -39 -6 0 -11 -7 -11 -15 0 -8 9 -15 19
-15 13 0 18 -6 17 -17 -2 -10 -8 -18 -14 -18 -6 0 -14 -3 -18 -7 -4 -5 4 -8
18 -8 24 0 26 -4 30 -50 l3 -50 -180 0 -181 0 1 38 c1 34 4 37 36 43 l34 6
-33 2 c-30 1 -33 3 -26 24 4 12 7 29 7 37 0 8 5 18 11 22 8 5 7 8 -1 8 -7 0
-13 9 -13 20 0 11 6 20 13 20 9 0 9 2 -1 9 -15 9 -13 42 3 53 6 4 24 8 40 9
29 1 28 1 -10 14 -22 7 -35 13 -30 14 6 1 3 6 -5 11 -10 6 -11 10 -3 10 13 0
13 25 1 45 -3 6 -5 21 -3 35 1 19 9 27 31 31 l29 7 -28 1 c-16 0 -26 5 -22 10
3 5 1 12 -5 16 -5 3 -10 19 -10 35 0 16 -3 31 -7 33 -5 3 -8 -65 -7 -151 0
-87 -6 -218 -13 -292 -9 -86 -12 -159 -7 -200 5 -40 9 -54 12 -37 3 25 7 27
50 29 41 1 42 2 12 5 -19 3 -41 9 -47 15 -19 15 -16 38 4 38 15 0 14 2 -3 15
-17 14 -4 15 146 11 91 -3 175 -6 188 -6 12 0 22 -4 22 -10 0 -5 -30 -11 -67
-13 l-68 -3 68 -2 c59 -2 68 -4 65 -19 -2 -13 -16 -19 -48 -23 -51 -6 -33 -20
26 -20 l34 0 0 -57 c0 -31 2 -54 4 -52 9 8 10 193 2 304 -5 77 -4 119 4 140 7
17 13 57 15 90 12 212 43 392 44 258 1 -35 5 -63 10 -63 9 0 4 150 -5 159 -2
2 1 12 7 23 7 13 7 23 0 32 -7 9 -7 16 2 25 9 9 9 14 -3 21 -11 7 -12 14 -2
34 7 16 8 28 2 31 -6 4 -7 13 -1 23 4 9 7 37 5 62 -1 25 1 49 4 55 3 5 6 52 7
105 0 52 4 101 8 108 5 6 4 12 -1 12 -18 0 -7 81 11 92 11 6 17 5 17 -2 0 -5
13 -10 29 -10 16 0 31 -5 33 -11 5 -16 88 -18 118 -4 14 7 30 10 37 8 7 -2 32
9 56 25 58 40 85 74 30 38 -24 -16 -49 -26 -58 -22 -9 3 -29 -4 -45 -15 -46
-35 -57 -12 -13 28 33 30 31 29 -15 -6 -30 -23 -59 -38 -64 -34 -7 4 -4 11 7
20 11 7 15 13 9 13 -5 0 -18 -7 -28 -15 -24 -18 -36 -19 -36 -2 0 6 -13 12
-29 13 -16 1 -37 5 -47 9 -26 11 -73 6 -106 -11 -19 -10 -28 -10 -30 -2 -3 8
-11 7 -28 -2 -14 -8 -25 -9 -27 -3 -2 5 -24 8 -48 7 -25 -2 -45 1 -45 6 0 5
-7 10 -15 12 -11 2 2 17 35 43 75 59 106 85 98 85 -3 0 -28 -18 -55 -39z"/>
<path d="M2673 3588 c-18 -13 -33 -27 -33 -32 0 -5 12 1 28 15 15 13 31 27 37
31 20 17 -2 7 -32 -14z"/>
<path d="M2722 3580 c-18 -17 -29 -30 -24 -30 5 0 21 14 37 30 37 38 30 38
-13 0z"/>
<path d="M2470 3590 c-9 -6 -10 -10 -3 -10 6 0 15 5 18 10 8 12 4 12 -15 0z"/>
<path d="M2565 3590 c-3 -5 -1 -10 4 -10 6 0 11 5 11 10 0 6 -2 10 -4 10 -3 0
-8 -4 -11 -10z"/>
<path d="M2997 3575 c-15 -14 -24 -25 -19 -25 5 0 19 11 32 25 30 32 23 32
-13 0z"/>
<path d="M3105 3570 c-16 -17 -16 -20 -3 -15 9 4 19 13 22 21 7 19 2 18 -19
-6z"/>
<path d="M2000 3555 c0 -9 6 -12 15 -9 8 4 15 10 15 15 0 5 -7 9 -15 9 -8 0
-15 -7 -15 -15z"/>
<path d="M2469 3543 l-24 -28 28 24 c25 23 32 31 24 31 -2 0 -14 -12 -28 -27z"/>
<path d="M2854 3548 l-19 -21 28 18 c28 18 33 25 19 25 -5 0 -17 -10 -28 -22z"/>
<path d="M2905 3550 c-3 -6 1 -7 9 -4 18 7 21 14 7 14 -6 0 -13 -4 -16 -10z"/>
<path d="M2995 3530 c-3 -5 -1 -10 4 -10 6 0 11 5 11 10 0 6 -2 10 -4 10 -3 0
-8 -4 -11 -10z"/>
<path d="M4655 3507 c-27 -10 -38 -16 -22 -14 31 5 47 -10 26 -24 -9 -6 4 -8
36 -8 48 1 49 1 18 10 -37 11 -42 23 -16 38 32 18 9 17 -42 -2z"/>
<path d="M4370 3502 c0 -28 -20 -42 -64 -44 l-41 -1 38 -4 c42 -5 47 -21 17
-48 -11 -10 -20 -22 -20 -27 0 -5 9 -4 20 2 17 9 20 8 20 -10 0 -17 6 -20 49
-20 45 0 50 2 60 30 11 33 12 33 -57 30 -42 -2 -42 -1 -31 24 11 23 18 26 73
28 l61 2 -52 3 c-49 4 -53 6 -53 29 0 13 -4 24 -10 24 -5 0 -10 -8 -10 -18z
m60 -122 c0 -16 -7 -20 -34 -20 -19 0 -38 5 -41 10 -11 18 5 30 41 30 27 0 34
-4 34 -20z"/>
<path d="M3008 3487 c-14 -12 -35 -27 -45 -34 -10 -6 -13 -12 -7 -12 6 -1 28
15 50 34 43 38 45 48 2 12z"/>
<path d="M5005 3500 c3 -6 -4 -10 -17 -10 -13 0 -29 -5 -36 -12 -9 -9 -12 -8
-12 5 0 13 -9 17 -32 17 l-33 0 0 -54 c0 -51 1 -53 23 -45 19 7 22 5 22 -16 0
-17 -6 -25 -17 -25 -15 0 -15 -2 -4 -9 21 -14 41 -2 41 25 0 28 30 34 31 7 0
-14 2 -15 6 -3 4 8 12 21 20 28 11 11 13 8 13 -17 0 -40 38 -68 69 -51 31 16
26 25 -14 25 -37 0 -49 18 -15 23 15 3 20 11 20 33 0 19 -5 29 -15 29 -8 0
-15 -4 -15 -10 0 -5 5 -10 10 -10 6 0 10 -7 10 -15 0 -8 -7 -15 -15 -15 -8 0
-15 9 -15 20 0 15 -7 20 -25 20 -14 0 -25 5 -25 10 0 6 -5 10 -11 10 -5 0 -8
-4 -5 -9 3 -4 -1 -17 -9 -27 -14 -18 -14 -18 -15 2 0 12 6 27 13 33 14 11 66
16 101 9 10 -1 21 3 23 10 3 8 -6 12 -26 12 -17 0 -31 5 -31 10 0 6 -5 10 -11
10 -5 0 -7 -4 -4 -10z m-85 -31 c0 -5 -7 -9 -15 -9 -15 0 -20 12 -9 23 8 8 24
-1 24 -14z m0 -34 c0 -8 -7 -15 -15 -15 -8 0 -15 7 -15 15 0 8 7 15 15 15 8 0
15 -7 15 -15z"/>
<path d="M1995 3470 c3 -5 11 -10 16 -10 6 0 7 5 4 10 -3 6 -11 10 -16 10 -6
0 -7 -4 -4 -10z"/>
<path d="M3099 3459 l-24 -20 28 17 c15 9 27 18 27 20 0 8 -8 4 -31 -17z"/>
<path d="M3828 3463 c6 -2 18 -2 25 0 6 3 1 5 -13 5 -14 0 -19 -2 -12 -5z"/>
<path d="M4618 3453 c7 -3 16 -2 19 1 4 3 -2 6 -13 5 -11 0 -14 -3 -6 -6z"/>
<path d="M4631 3431 c-11 -7 -7 -10 15 -13 48 -5 134 3 128 13 -7 12 -125 11
-143 0z"/>
<path d="M2106 3415 c-11 -8 -15 -15 -9 -15 6 0 16 7 23 15 16 19 11 19 -14 0z"/>
<path d="M4588 3413 c7 -3 16 -2 19 1 4 3 -2 6 -13 5 -11 0 -14 -3 -6 -6z"/>
<path d="M2055 3370 c-10 -11 -16 -20 -13 -20 3 0 15 9 28 20 13 11 19 20 13
20 -5 0 -18 -9 -28 -20z"/>
<path d="M2215 3379 c-4 -6 -5 -12 -2 -15 2 -3 7 2 10 11 7 17 1 20 -8 4z"/>
<path d="M2310 3369 c-22 -18 -22 -19 -3 -10 12 6 25 16 28 21 9 15 3 12 -25
-11z"/>
<path d="M4670 3371 c0 -12 -5 -21 -12 -21 -9 0 -9 -3 0 -12 6 -6 14 -9 17 -6
11 10 14 48 4 53 -5 4 -9 -3 -9 -14z"/>
<path d="M2000 3370 c0 -5 5 -10 10 -10 6 0 10 5 10 10 0 6 -4 10 -10 10 -5 0
-10 -4 -10 -10z"/>
<path d="M2081 3305 c-21 -19 -46 -35 -55 -35 -13 0 -16 -11 -16 -59 0 -37 -5
-63 -12 -68 -13 -8 -27 -12 -198 -56 -52 -14 -147 -40 -210 -57 -117 -33 -154
-43 -295 -79 -146 -38 -200 -54 -210 -63 -15 -13 10 -10 88 13 39 11 99 27
132 35 33 8 92 23 130 34 315 89 503 139 551 147 30 5 32 3 39 -33 4 -22 9
-43 13 -48 3 -5 7 -21 8 -35 6 -46 22 -106 24 -93 6 32 5 78 -3 83 -5 3 0 14
10 24 16 17 16 18 1 12 -23 -8 -33 10 -17 29 10 12 10 15 -2 12 -8 -2 -14 4
-14 12 0 8 -4 20 -8 27 -4 6 -3 14 3 18 5 3 10 -1 10 -9 0 -22 9 -20 52 9 21
14 50 30 65 36 25 9 26 11 10 21 -10 5 -47 10 -83 10 -35 0 -64 4 -64 8 0 4
16 22 35 39 19 17 35 34 35 38 0 4 -16 -8 -35 -27 -19 -19 -35 -28 -35 -22 0
7 24 35 53 62 59 56 58 69 -2 15z"/>
<path d="M2200 3320 c-8 -5 -12 -12 -9 -15 4 -3 12 1 19 10 14 17 11 19 -10 5z"/>
<path d="M2015 3290 c-3 -5 -1 -10 4 -10 6 0 11 5 11 10 0 6 -2 10 -4 10 -3 0
-8 -4 -11 -10z"/>
<path d="M2389 3253 c-13 -16 -12 -17 4 -4 9 7 17 15 17 17 0 8 -8 3 -21 -13z"/>
<path d="M3090 3245 c-7 -9 -8 -15 -2 -15 5 0 12 7 16 15 3 8 4 15 2 15 -2 0
-9 -7 -16 -15z"/>
<path d="M2089 3223 c-13 -16 -12 -17 4 -4 16 13 21 21 13 21 -2 0 -10 -8 -17
-17z"/>
<path d="M4599 3173 c-11 -2 -19 -18 -22 -41 -2 -20 -3 -38 -2 -40 2 -2 22 -5
45 -7 39 -4 41 -3 24 11 -11 9 -14 13 -7 10 6 -4 14 -2 18 4 7 11 55 10 55 -1
0 -12 -49 -39 -70 -39 -18 0 -21 -5 -18 -32 2 -25 8 -34 26 -36 26 -4 30 14 5
21 -15 4 -14 5 3 6 20 1 44 -16 44 -31 0 -4 -8 -8 -17 -8 -12 0 -14 -3 -6 -11
22 -22 35 2 31 57 -4 48 -3 52 13 43 10 -5 28 -8 41 -8 20 1 21 2 3 6 -28 7
-39 19 -29 35 15 23 14 41 -1 28 -7 -6 -36 -10 -64 -9 -29 1 -47 5 -40 9 8 5
6 11 -7 19 -18 11 -17 12 3 6 12 -3 24 -1 28 5 6 10 -24 12 -56 3z m100 -128
c2 -13 -1 -16 -14 -11 -9 3 -26 6 -38 6 -21 1 -21 1 3 15 30 17 44 14 49 -10z"/>
<path d="M4680 3171 c0 -6 5 -13 10 -16 6 -3 10 -1 10 6 0 9 3 9 14 0 10 -9
15 -8 20 4 4 11 -2 15 -24 15 -17 0 -30 -4 -30 -9z"/>
<path d="M4359 3165 c-3 -5 -9 -22 -13 -37 -6 -25 -11 -28 -49 -30 l-42 -1 38
-4 c20 -2 37 -8 37 -13 0 -5 -18 -27 -39 -49 -43 -44 -44 -53 -4 -21 27 21 43
19 43 -6 0 -10 13 -14 50 -14 43 0 50 3 50 19 0 11 4 23 10 26 18 11 -13 34
-32 24 -40 -21 -82 -2 -58 26 8 10 31 15 66 15 30 0 54 5 54 10 0 6 -22 10
-49 10 -47 0 -50 2 -53 28 -2 15 -6 23 -9 17z m49 -142 c-2 -12 -13 -18 -33
-18 -20 0 -31 6 -33 18 -3 14 4 17 33 17 29 0 36 -3 33 -17z"/>
<path d="M480 3111 c0 -5 9 -11 20 -14 13 -3 20 0 20 9 0 8 -9 14 -20 14 -11
0 -20 -4 -20 -9z"/>
<path d="M554 3109 c-3 -6 -1 -16 5 -22 8 -8 11 -8 11 2 0 8 6 11 15 7 9 -3
15 0 15 9 0 17 -36 20 -46 4z"/>
<path d="M216 3076 c-3 -14 -17 -28 -33 -34 -18 -7 -22 -11 -10 -11 23 -1 21
-14 -8 -49 -14 -17 -25 -33 -25 -36 0 -3 11 4 25 16 14 12 25 25 25 30 0 21
37 48 67 48 17 0 35 5 38 11 11 17 -3 23 -20 9 -8 -7 -22 -10 -30 -6 -13 4
-14 10 -5 26 8 16 8 20 -4 20 -7 0 -17 -11 -20 -24z"/>
<path d="M447 3068 c-2 -18 -3 -35 -2 -36 2 -2 21 -5 42 -7 36 -4 37 -3 18 12
-20 15 -20 15 2 9 12 -4 24 -3 27 2 3 5 17 7 30 5 l25 -5 -21 -18 c-19 -15
-20 -20 -9 -34 19 -23 -3 -46 -45 -46 -26 0 -34 -4 -34 -17 0 -11 3 -14 8 -7
9 14 82 26 82 13 0 -5 -7 -9 -16 -9 -14 0 -14 -3 -3 -16 11 -14 13 -14 22 2 5
9 7 39 4 66 l-6 50 24 -16 c28 -18 45 -21 45 -6 0 6 -6 10 -14 10 -21 0 -30
18 -17 34 6 7 8 16 4 19 -3 4 0 7 7 7 7 0 10 3 7 6 -4 4 -12 2 -19 -4 -19 -15
-73 -18 -89 -5 -8 6 -26 14 -40 18 -24 6 -27 3 -32 -27z"/>
<path d="M220 2991 c-25 -7 -25 -7 -2 -13 32 -9 29 -38 -5 -38 -34 0 -60 -15
-44 -24 6 -4 11 -2 11 3 0 7 32 12 83 13 65 1 73 2 37 7 -36 5 -45 10 -45 26
0 13 9 22 25 26 23 6 23 7 -5 7 -16 0 -41 -3 -55 -7z"/>
<path d="M498 2993 c6 -2 18 -2 25 0 6 3 1 5 -13 5 -14 0 -19 -2 -12 -5z"/>
<path d="M2990 2990 c-9 -6 -10 -10 -3 -10 6 0 15 5 18 10 8 12 4 12 -15 0z"/>
<path d="M5420 2985 c0 -8 5 -15 10 -15 6 0 10 7 10 15 0 8 -4 15 -10 15 -5 0
-10 -7 -10 -15z"/>
<path d="M490 2970 c0 -5 11 -10 25 -10 14 0 25 5 25 10 0 6 -11 10 -25 10
-14 0 -25 -4 -25 -10z"/>
<path d="M2070 2870 c0 -11 4 -28 9 -38 6 -9 18 -36 27 -59 10 -24 20 -41 22
-38 3 3 -2 22 -11 42 -9 21 -18 55 -22 76 -6 39 -25 52 -25 17z"/>
<path d="M4348 2823 c-3 -25 -7 -28 -45 -31 -52 -4 -58 -22 -8 -22 19 0 35 -4
35 -8 0 -5 -16 -25 -37 -45 -38 -39 -36 -52 3 -16 l23 22 7 -27 c6 -24 11 -26
55 -26 45 0 49 2 51 25 0 14 1 30 2 37 1 9 -14 11 -46 9 -36 -2 -48 1 -48 11
0 26 24 38 80 40 l55 2 -52 3 c-49 4 -53 6 -53 29 0 33 -18 31 -22 -3z m62
-117 c0 -21 -17 -29 -46 -22 -38 10 -30 36 11 36 24 0 35 -5 35 -14z"/>
<path d="M4640 2810 c0 -38 -1 -40 -32 -41 -31 -2 -31 -2 -5 -6 34 -5 34 -13
0 -54 -15 -18 -21 -30 -13 -27 8 2 29 23 45 46 24 33 36 41 62 41 49 1 51 21
3 21 -33 0 -41 3 -39 18 3 29 -1 42 -11 42 -5 0 -10 -18 -10 -40z"/>
<path d="M4860 2805 c0 -31 3 -35 26 -35 14 0 23 -4 19 -10 -3 -5 -15 -10 -26
-10 -10 0 -19 -5 -19 -10 0 -6 11 -8 25 -4 21 5 25 3 25 -16 0 -13 -8 -29 -17
-36 -16 -12 -11 -13 32 -7 27 3 56 12 63 20 7 7 19 13 25 13 7 0 4 5 -5 11
-24 14 -23 39 2 39 11 0 19 -5 18 -11 -2 -6 7 -18 20 -26 20 -14 22 -14 16 1
-3 9 -11 16 -16 16 -6 0 -6 6 1 14 9 11 9 15 -1 18 -10 4 -10 10 0 32 10 22 9
28 -3 32 -8 4 -26 3 -40 0 -23 -6 -25 -10 -25 -71 l0 -65 -30 0 -30 0 0 70 0
70 -30 0 c-28 0 -30 -3 -30 -35z m50 0 c0 -8 -9 -15 -20 -15 -20 0 -26 11 -13
23 12 13 33 7 33 -8z m115 -7 c-2 -31 -22 -34 -22 -3 0 14 5 25 12 25 6 0 11
-10 10 -22z"/>
<path d="M3016 2728 c-20 -40 -36 -83 -36 -96 0 -12 -6 -22 -12 -22 -9 0 -8
-3 2 -10 23 -14 -12 -24 -58 -16 -20 4 -99 10 -174 13 -107 4 -136 8 -132 18
3 7 0 16 -7 20 -20 13 -2 -189 21 -241 24 -51 25 -81 6 -154 -23 -93 -39 -178
-35 -189 3 -7 70 -12 189 -14 193 -4 219 -8 221 -36 1 -9 6 2 12 24 14 54 13
225 -2 305 -7 36 -13 124 -13 195 -1 128 -1 131 32 198 18 37 30 70 28 73 -3
3 -22 -28 -42 -68z m-108 -157 c72 -1 85 -20 15 -23 -40 -1 -42 -2 -13 -5 80
-9 58 -18 -55 -23 l-120 -6 117 -2 c158 -3 166 -21 11 -24 l-118 -2 110 -3
c142 -5 165 -23 30 -24 -117 -1 -114 -6 10 -18 l90 -8 -104 -2 c-57 0 -102 -4
-99 -7 4 -3 49 -5 101 -5 l95 1 4 -38 c6 -72 6 -72 -93 -72 -53 0 -89 4 -89
10 0 6 17 11 38 12 20 1 -12 5 -73 8 l-110 6 155 3 c177 4 153 17 -37 22 -62
1 -117 5 -121 8 -14 10 -42 101 -31 101 6 0 7 10 4 23 -4 12 -8 27 -9 32 0 6
43 12 104 16 l105 5 -102 2 c-56 1 -104 6 -107 11 -4 5 44 8 112 6 64 -2 145
-4 180 -4z m-136 -253 c3 -9 34 -14 94 -16 115 -4 138 -15 49 -22 l-70 -6 78
-2 c115 -3 96 -22 -25 -24 l-103 -2 101 -3 102 -4 4 -37 c3 -21 0 -40 -6 -44
-8 -6 -8 -8 0 -8 7 0 9 -11 6 -26 l-5 -25 -171 5 c-100 3 -161 2 -146 -3 14
-5 91 -9 173 -10 91 -1 147 -5 147 -11 0 -5 -28 -11 -62 -12 l-63 -1 65 -7
c43 -4 -1 -7 -132 -8 -190 -2 -198 -1 -198 17 0 11 4 22 10 26 5 3 7 11 5 18
-12 32 11 36 180 40 l170 3 -173 2 -172 2 5 23 c4 13 8 30 9 38 2 8 8 25 13
39 6 14 8 31 6 38 -5 13 5 15 50 12 15 -1 27 3 27 9 0 15 27 14 32 -1z"/>
<path d="M2683 2483 c9 -2 23 -2 30 0 6 3 -1 5 -18 5 -16 0 -22 -2 -12 -5z"/>
<path d="M2795 2394 c70 -8 175 -8 175 -1 0 4 -46 6 -102 5 -57 0 -89 -3 -73
-4z"/>
<path d="M2733 2213 c26 -2 68 -2 95 0 26 2 4 3 -48 3 -52 0 -74 -1 -47 -3z"/>
<path d="M2727 2188 c-7 -4 38 -7 98 -6 119 1 116 5 -8 10 -43 2 -84 0 -90 -4z"/>
<path d="M213 2760 c-6 -17 -22 -34 -35 -39 -17 -7 -18 -10 -5 -10 9 -1 17 -5
17 -9 0 -5 -8 -17 -17 -28 -10 -10 -25 -28 -33 -39 -15 -20 -14 -20 10 0 35
29 59 58 60 72 0 7 18 13 42 15 23 2 43 8 45 15 3 9 -6 10 -32 6 -35 -6 -37
-5 -27 14 11 19 7 33 -7 33 -4 0 -12 -14 -18 -30z"/>
<path d="M510 2752 c0 -41 -1 -42 -32 -43 -30 -1 -29 -2 10 -15 10 -3 10 -10
-2 -33 -9 -16 -21 -31 -28 -34 -8 -4 -7 -6 4 -6 9 -1 25 13 35 29 9 17 21 30
25 30 4 0 8 7 8 15 0 11 12 15 43 16 l42 2 -40 6 c-33 5 -40 10 -40 28 0 13
-6 28 -13 35 -9 9 -12 3 -12 -30z"/>
<path d="M728 2740 c3 -23 9 -30 26 -30 20 0 23 -6 24 -40 1 -28 -3 -42 -13
-46 -8 -4 -12 -10 -9 -16 3 -5 11 -4 20 3 8 7 29 9 51 5 116 -18 126 -19 119
-7 -4 6 -27 11 -52 11 -48 0 -57 11 -21 28 17 8 18 11 5 11 -23 1 -24 41 -2
41 9 0 14 -6 12 -12 -3 -7 6 -18 20 -25 33 -17 42 -16 17 3 -17 13 -18 16 -5
24 13 9 13 11 1 19 -12 8 -13 14 -3 35 11 26 11 26 -28 26 l-40 0 0 -65 c0
-36 -3 -65 -7 -65 -5 0 -18 -3 -30 -6 -22 -6 -23 -4 -23 65 l0 71 -33 0 c-32
0 -33 -2 -29 -30z m52 6 c0 -8 -5 -18 -11 -22 -14 -8 -33 11 -25 25 10 16 36
13 36 -3z m115 -8 c-1 -13 -9 -24 -17 -26 -12 -2 -14 3 -11 23 6 31 30 34 28
3z"/>
<path d="M4940 2760 c0 -5 7 -10 15 -10 8 0 15 5 15 10 0 6 -7 10 -15 10 -8 0
-15 -4 -15 -10z"/>
<path d="M4685 2723 c24 -39 45 -53 74 -53 24 1 22 3 -16 26 -24 14 -43 30
-43 34 0 4 -7 11 -16 14 -15 6 -15 3 1 -21z"/>
<path d="M4851 2704 c0 -11 3 -14 6 -6 3 7 2 16 -1 19 -3 4 -6 -2 -5 -13z"/>
<path d="M812 2699 c2 -6 8 -10 13 -10 5 0 11 4 13 10 2 6 -4 11 -13 11 -9 0
-15 -5 -13 -11z"/>
<path d="M540 2686 c0 -4 12 -23 26 -42 20 -26 34 -34 58 -34 l31 0 -35 21
c-19 12 -45 30 -57 42 -13 11 -23 17 -23 13z"/>
<path d="M730 2680 c0 -5 7 -10 16 -10 8 0 12 5 9 10 -3 6 -10 10 -16 10 -5 0
-9 -4 -9 -10z"/>
<path d="M225 2670 c-17 -7 -17 -9 -2 -9 10 -1 17 -9 17 -21 0 -15 -7 -20 -27
-20 -16 0 -35 -5 -43 -11 -12 -9 -12 -10 3 -5 10 3 53 7 95 8 65 1 70 2 32 7
-36 5 -45 10 -45 26 0 12 9 22 25 26 24 7 24 7 -5 7 -16 0 -39 -3 -50 -8z"/>
<path d="M5005 2670 c28 -12 78 -12 70 0 -3 6 -25 10 -48 9 -33 0 -38 -2 -22
-9z"/>
<path d="M2728 2613 c23 -2 61 -2 85 0 23 2 4 4 -43 4 -47 0 -66 -2 -42 -4z"/>
<path d="M2368 2563 c12 -2 30 -2 40 0 9 3 -1 5 -23 4 -22 0 -30 -2 -17 -4z"/>
<path d="M2468 2563 c7 -3 16 -2 19 1 4 3 -2 6 -13 5 -11 0 -14 -3 -6 -6z"/>
<path d="M2263 2373 c15 -2 37 -2 50 0 12 2 0 4 -28 4 -27 0 -38 -2 -22 -4z"/>
<path d="M2383 2373 c9 -2 25 -2 35 0 9 3 1 5 -18 5 -19 0 -27 -2 -17 -5z"/>
<path d="M2448 2373 c6 -2 18 -2 25 0 6 3 1 5 -13 5 -14 0 -19 -2 -12 -5z"/>
<path d="M2368 2343 c17 -2 47 -2 65 0 17 2 3 4 -33 4 -36 0 -50 -2 -32 -4z"/>
<path d="M3153 2303 c43 -43 48 -46 63 -32 16 17 48 4 419 -166 28 -12 88 -39
135 -60 47 -20 104 -46 127 -57 24 -11 49 -18 55 -15 7 3 -5 12 -27 22 -22 9
-68 30 -103 46 -34 16 -64 29 -67 29 -2 0 -40 16 -82 36 -43 19 -114 52 -158
71 -44 20 -114 52 -155 71 -41 19 -85 38 -98 43 -17 6 -22 14 -17 28 5 15 -2
19 -41 25 -26 3 -58 6 -73 6 -25 0 -24 -2 22 -47z"/>
<path d="M1947 2272 c-41 -14 -47 -19 -43 -38 5 -18 -17 -38 -147 -135 -83
-62 -154 -116 -157 -119 -3 -4 -27 -22 -53 -41 -27 -19 -63 -45 -81 -59 -18
-14 -77 -58 -130 -97 -90 -69 -115 -92 -82 -80 13 5 614 454 626 467 3 4 16
14 29 23 19 12 28 14 38 5 14 -12 24 -2 65 64 17 27 17 28 0 27 -9 0 -39 -8
-65 -17z"/>
<path d="M2348 2193 c18 -2 45 -2 60 0 15 2 0 4 -33 4 -33 0 -45 -2 -27 -4z"/>
<path d="M2225 2169 c-4 -5 34 -9 91 -9 54 0 94 3 90 7 -10 11 -175 13 -181 2z"/>
<path d="M2178 2163 c7 -3 16 -2 19 1 4 3 -2 6 -13 5 -11 0 -14 -3 -6 -6z"/>
<path d="M4671 2097 c-1 -10 -11 -22 -23 -27 -13 -5 -17 -9 -10 -9 7 -1 10 -6
6 -13 -5 -8 -2 -9 9 -5 22 8 22 -11 0 -35 -9 -10 -11 -18 -5 -18 6 0 13 4 16
9 8 12 42 3 57 -15 9 -11 8 -14 -6 -14 -10 0 -16 -2 -13 -5 7 -7 68 6 68 15 0
4 -20 13 -45 20 -34 9 -45 18 -45 32 0 17 5 19 33 14 l32 -6 -30 14 c-28 13
-28 14 -7 15 27 1 20 21 -8 21 -10 0 -21 6 -23 13 -3 7 -6 5 -6 -6z"/>
<path d="M4335 2070 c-6 -27 -10 -30 -45 -30 -21 0 -42 -4 -45 -10 -4 -6 8
-10 29 -10 20 0 36 -4 36 -10 0 -5 -17 -29 -37 -52 -32 -36 -33 -39 -9 -20 35
27 46 28 46 2 0 -17 7 -20 48 -20 41 0 49 3 60 27 18 41 16 43 -44 43 -56 0
-56 0 -42 23 12 17 28 23 74 28 l59 6 -52 1 c-45 2 -53 5 -53 21 0 33 -18 33
-25 1z m65 -114 c0 -18 -33 -30 -60 -21 -37 12 -23 35 20 35 28 0 40 -4 40
-14z"/>
<path d="M4597 2060 c4 -15 0 -20 -16 -20 -23 0 -29 15 -8 23 7 3 5 6 -5 6
-15 1 -18 -8 -18 -49 0 -49 1 -50 25 -44 20 5 25 2 25 -11 0 -10 -8 -24 -17
-31 -17 -12 -16 -13 5 -14 17 0 22 6 22 26 0 22 3 24 23 18 l22 -6 -22 19
c-17 15 -23 31 -23 62 0 22 -4 41 -9 41 -5 0 -7 -9 -4 -20z m3 -50 c0 -5 -9
-10 -20 -10 -11 0 -20 5 -20 10 0 6 9 10 20 10 11 0 20 -4 20 -10z"/>
<path d="M2313 2053 c9 -2 25 -2 35 0 9 3 1 5 -18 5 -19 0 -27 -2 -17 -5z"/>
<path d="M2593 1988 c3 -13 9 -86 13 -163 4 -77 11 -149 16 -160 5 -13 7 3 3
45 -3 36 -8 118 -11 183 -4 64 -11 117 -17 117 -5 0 -7 -10 -4 -22z"/>
<path d="M4670 1962 c0 -15 -5 -33 -12 -40 -9 -9 -8 -12 5 -12 13 0 17 9 17
40 0 22 -2 40 -5 40 -3 0 -5 -13 -5 -28z"/>
<path d="M2988 1974 c-4 -5 -9 -26 -13 -47 -4 -20 -11 -40 -16 -43 -5 -3 -9
-13 -9 -22 0 -24 14 -3 34 51 16 43 18 85 4 61z"/>
<path d="M2135 1953 c4 -10 9 -33 12 -50 3 -18 9 -33 13 -33 3 0 2 23 -4 50
-5 28 -14 50 -19 50 -5 0 -6 -8 -2 -17z"/>
<path d="M4630 1940 c-13 -8 -12 -10 3 -10 9 0 17 5 17 10 0 12 -1 12 -20 0z"/>
<path d="M4700 1940 c0 -5 7 -10 15 -10 8 0 15 5 15 10 0 6 -7 10 -15 10 -8 0
-15 -4 -15 -10z"/>
<path d="M2513 1800 c0 -36 2 -50 4 -32 2 17 2 47 0 65 -2 17 -4 3 -4 -33z"/>
<path d="M2166 1835 c4 -8 8 -15 10 -15 2 0 4 7 4 15 0 8 -4 15 -10 15 -5 0
-7 -7 -4 -15z"/>
<path d="M797 1818 c-10 -11 -15 -23 -12 -28 3 -5 -3 -13 -12 -19 -10 -6 -13
-11 -6 -11 6 0 15 5 18 10 7 12 25 13 25 2 0 -5 -9 -18 -20 -30 -21 -22 -14
-32 7 -11 8 8 23 5 54 -9 24 -11 48 -17 54 -14 5 3 -12 13 -38 21 -34 11 -47
20 -47 34 0 16 5 18 33 13 17 -3 25 -3 17 0 -8 4 -21 12 -29 18 -11 9 -9 12
10 17 24 7 24 7 -3 8 -14 1 -28 5 -30 9 -1 4 -11 0 -21 -10z"/>
<path d="M2942 1820 c0 -14 2 -19 5 -12 2 6 2 18 0 25 -3 6 -5 1 -5 -13z"/>
<path d="M470 1805 c-5 -14 -20 -30 -32 -35 -18 -7 -19 -9 -5 -9 25 -1 21 -12
-18 -54 -19 -20 -31 -37 -26 -37 11 0 61 47 61 58 0 19 38 42 68 42 18 0 32 4
32 10 0 5 -13 7 -31 3 -30 -6 -32 -5 -27 20 7 34 -9 35 -22 2z"/>
<path d="M708 1813 c-14 -4 -18 -15 -18 -59 0 -53 1 -54 21 -43 21 11 22 10
16 -26 -7 -44 13 -44 25 0 9 35 -5 55 -34 47 -15 -3 -19 -1 -16 9 3 8 15 13
27 11 20 -3 22 0 19 29 -3 34 -11 40 -40 32z m22 -23 c0 -11 -7 -20 -15 -20
-18 0 -19 12 -3 28 16 16 18 15 18 -8z"/>
<path d="M2185 1780 c4 -19 11 -39 15 -45 4 -5 11 -30 15 -55 4 -25 11 -52 16
-60 26 -46 -9 116 -37 166 l-15 29 6 -35z"/>
<path d="M2907 1718 c-4 -18 -9 -43 -13 -55 -4 -13 -2 -23 4 -23 6 0 13 23 17
51 8 56 1 78 -8 27z"/>
<path d="M480 1721 c-21 -6 -22 -8 -7 -14 27 -10 21 -37 -8 -37 -14 0 -25 -4
-25 -10 0 -6 32 -10 75 -10 43 0 75 4 75 10 0 6 -18 10 -40 10 -36 0 -40 3
-40 24 0 18 7 26 23 29 20 4 20 4 -3 5 -14 0 -36 -3 -50 -7z"/>
<path d="M810 1692 c0 -15 -5 -33 -12 -40 -9 -9 -8 -12 5 -12 13 0 17 9 17 40
0 22 -2 40 -5 40 -3 0 -5 -13 -5 -28z"/>
<path d="M840 1700 c0 -5 5 -10 10 -10 6 0 10 5 10 10 0 6 -4 10 -10 10 -5 0
-10 -4 -10 -10z"/>
<path d="M765 1670 c-3 -5 -2 -10 4 -10 5 0 13 5 16 10 3 6 2 10 -4 10 -5 0
-13 -4 -16 -10z"/>
<path d="M845 1670 c3 -5 10 -10 16 -10 5 0 9 5 9 10 0 6 -7 10 -16 10 -8 0
-12 -4 -9 -10z"/>
<path d="M2497 1640 c-14 -75 -14 -340 0 -348 6 -4 13 -21 16 -37 6 -38 -3 59
-13 145 -4 36 -3 89 2 117 5 29 8 79 6 110 l-3 58 -8 -45z"/>
<path d="M2635 1480 c0 -105 -6 -186 -17 -250 -25 -134 -23 -172 7 -208 31
-37 45 -74 45 -120 0 -28 3 -33 10 -22 5 8 10 39 10 68 0 46 -3 54 -25 64 -14
6 -25 19 -25 29 0 10 -4 21 -10 24 -18 11 -11 61 13 83 12 11 40 24 62 27 38
6 43 4 88 -40 26 -26 47 -53 47 -61 0 -7 9 -18 20 -24 11 -6 20 -16 20 -23 0
-7 11 -29 25 -49 14 -20 25 -46 25 -57 0 -12 5 -21 10 -21 6 0 10 -5 10 -10 0
-14 -80 -90 -95 -90 -8 0 -15 -5 -17 -10 -5 -15 -86 -19 -113 -6 -13 6 -27 22
-31 36 -5 19 -8 21 -11 8 -2 -9 5 -37 16 -62 12 -25 21 -49 21 -55 0 -5 13
-19 29 -31 l30 -20 43 22 c89 45 168 116 168 151 0 24 -97 209 -144 274 -34
48 -35 50 -30 128 3 44 12 99 21 123 19 53 12 78 -10 35 -12 -22 -17 -57 -17
-112 0 -44 -4 -82 -8 -85 -5 -3 -27 0 -50 6 -33 8 -50 7 -82 -6 -22 -9 -40
-12 -40 -8 0 4 7 45 15 92 17 94 20 271 6 286 -5 5 -11 23 -13 39 -2 17 -4
-40 -3 -125z m315 -680 c0 -5 -7 -10 -15 -10 -8 0 -15 5 -15 10 0 6 7 10 15
10 8 0 15 -4 15 -10z m-152 -74 c2 -10 1 -25 -3 -34 -6 -15 -8 -15 -18 -1 -7
8 -20 18 -29 22 -10 3 -18 13 -18 22 0 22 64 14 68 -9z m57 14 c3 -5 -1 -10
-9 -10 -8 0 -18 5 -21 10 -3 6 1 10 9 10 8 0 18 -4 21 -10z"/>
<path d="M2882 1595 c0 -16 2 -22 5 -12 2 9 2 23 0 30 -3 6 -5 -1 -5 -18z"/>
<path d="M2242 1570 c0 -14 2 -19 5 -12 2 6 2 18 0 25 -3 6 -5 1 -5 -13z"/>
<path d="M2863 1553 c-9 -3 -13 -25 -12 -66 l0 -62 15 55 c16 60 15 79 -3 73z"/>
<path d="M2452 1525 c0 -16 2 -22 5 -12 2 9 2 23 0 30 -3 6 -5 -1 -5 -18z"/>
<path d="M2253 1528 c3 -9 9 -33 13 -52 3 -20 10 -36 14 -36 14 0 -1 74 -18
90 -13 13 -14 13 -9 -2z"/>
<path d="M2280 1407 c0 -8 5 -19 10 -22 6 -3 10 -18 10 -33 0 -15 5 -34 10
-42 8 -13 10 -12 11 5 4 41 -3 68 -22 88 -16 17 -19 18 -19 4z"/>
<path d="M4301 1300 c-9 -27 -15 -30 -53 -32 l-43 -1 44 -6 44 -6 -29 -35
c-16 -19 -36 -41 -44 -48 -13 -11 -12 -11 7 -2 12 5 25 15 28 20 11 17 23 11
27 -12 3 -20 8 -22 48 -20 52 4 58 8 62 42 3 24 1 25 -39 22 -53 -5 -66 3 -53
29 9 16 22 19 71 19 38 0 58 4 54 10 -3 6 -28 10 -55 10 -43 0 -48 2 -43 20 8
32 -14 23 -26 -10z m67 -107 c-4 -22 -57 -30 -69 -11 -15 23 -10 28 32 28 33
0 40 -3 37 -17z"/>
<path d="M4532 1313 c-16 -3 -22 -9 -18 -20 3 -8 6 -28 6 -45 0 -25 3 -29 20
-25 15 4 20 0 20 -13 0 -11 -5 -22 -10 -25 -6 -4 -8 -11 -4 -16 9 -14 34 10
34 32 0 25 16 24 23 -1 7 -27 36 -25 46 2 7 21 4 24 -38 34 -28 8 -50 9 -57 3
-6 -5 -14 -6 -17 -2 -12 12 -7 23 9 23 9 0 27 11 40 26 27 28 32 43 9 24 -10
-9 -15 -9 -15 -1 0 11 -7 12 -48 4z m28 -28 c0 -8 -7 -15 -15 -15 -16 0 -20
12 -8 23 11 12 23 8 23 -8z m80 -75 c0 -5 -7 -10 -15 -10 -8 0 -15 5 -15 10 0
6 7 10 15 10 8 0 15 -4 15 -10z"/>
<path d="M4630 1316 c0 -2 7 -6 15 -10 8 -3 15 -1 15 4 0 6 -7 10 -15 10 -8 0
-15 -2 -15 -4z"/>
<path d="M4833 1313 c-13 -2 -23 -9 -23 -14 0 -12 7 -11 31 1 20 11 24 4 10
-19 -5 -7 -14 -10 -20 -7 -6 4 -11 2 -11 -3 0 -6 4 -11 9 -11 5 0 12 -9 16
-19 4 -12 12 -18 21 -14 11 4 12 9 4 19 -8 9 -8 18 -1 33 21 39 16 44 -36 34z"/>
<path d="M4914 1314 c-16 -7 -4 -64 13 -64 23 0 4 -20 -20 -21 -16 -1 -17 -3
-5 -6 11 -3 15 -10 11 -20 -5 -12 -3 -14 8 -7 26 16 43 13 67 -12 26 -26 37
-29 46 -15 3 5 -8 14 -24 21 -16 7 -35 18 -41 26 -9 11 -6 14 20 14 38 0 42
20 4 21 -16 1 -21 3 -13 5 9 3 21 18 27 34 l11 30 -46 -1 c-26 0 -52 -3 -58
-5z m26 -14 c0 -5 -4 -10 -10 -10 -5 0 -10 5 -10 10 0 6 5 10 10 10 6 0 10 -4
10 -10z m47 4 c-3 -3 -12 -4 -19 -1 -8 3 -5 6 6 6 11 1 17 -2 13 -5z m-7 -23
c0 -5 -7 -11 -15 -15 -15 -5 -20 5 -8 17 9 10 23 9 23 -2z"/>
<path d="M4679 1293 c-1 -5 -1 -12 0 -16 3 -17 -31 -19 -43 -2 -12 16 -13 16
-19 1 -4 -10 -1 -16 7 -16 18 0 46 -33 48 -56 0 -10 4 1 7 26 5 37 10 46 29
48 26 4 28 -5 6 -36 -13 -18 -13 -22 -1 -22 12 0 27 39 27 71 0 11 -60 12 -61
2z"/>
<path d="M2311 1259 c-8 -23 -7 -40 4 -72 l14 -41 -43 -65 c-43 -65 -146 -264
-146 -282 0 -16 43 -69 56 -69 6 0 14 -7 18 -15 3 -8 12 -15 21 -15 8 0 15 -4
15 -10 0 -5 16 -10 35 -10 22 0 38 -6 41 -14 8 -20 32 -28 54 -16 10 5 26 31
35 57 10 27 26 66 36 88 10 22 23 75 28 118 8 53 19 89 35 114 14 19 22 42 19
49 -6 17 -23 8 -23 -12 0 -8 -7 -14 -15 -14 -8 0 -15 -7 -15 -15 0 -8 -9 -20
-20 -27 -11 -7 -20 -16 -20 -21 0 -4 5 -5 10 -2 6 4 10 -20 10 -64 0 -51 -4
-70 -12 -69 -7 2 -15 -12 -18 -32 -8 -53 -45 -67 -105 -40 -25 11 -45 25 -45
30 0 6 -9 10 -20 10 -11 0 -20 5 -20 10 0 6 -7 10 -15 10 -11 0 -15 12 -15 44
0 25 5 48 10 51 6 4 17 22 25 41 8 19 18 34 23 34 5 0 12 14 16 30 3 18 12 30
21 30 8 0 15 7 15 15 0 26 55 67 122 88 21 7 68 -14 68 -30 0 -7 7 -13 16 -13
11 0 14 5 9 18 -4 9 -10 25 -12 35 -4 12 -16 17 -42 18 -57 2 -74 -2 -100 -22
-13 -10 -27 -19 -31 -19 -16 0 -32 61 -26 95 8 43 2 46 -13 4z m-120 -442
c-13 -13 -26 -3 -16 12 3 6 11 8 17 5 6 -4 6 -10 -1 -17z m49 -22 c0 -1 -7 -8
-15 -15 -13 -10 -15 -9 -15 8 0 15 5 20 15 16 8 -4 15 -7 15 -9z m28 -37 c-6
-18 -28 -21 -28 -4 0 9 7 16 16 16 9 0 14 -5 12 -12z m42 -22 c0 -7 -7 -19
-15 -26 -13 -11 -15 -8 -15 14 0 16 5 26 15 26 8 0 15 -6 15 -14z m78 -28 c-3
-36 -24 -44 -41 -16 -12 19 6 48 30 48 10 0 13 -9 11 -32z"/>
<path d="M4811 1224 c0 -11 3 -14 6 -6 3 7 2 16 -1 19 -3 4 -6 -2 -5 -13z"/>
<path d="M4823 1203 c-18 -2 -33 -8 -33 -13 0 -17 17 -19 43 -5 14 7 34 15 44
18 15 4 15 5 -2 4 -11 0 -35 -2 -52 -4z"/>
<path d="M4870 1170 c-9 -6 -10 -10 -3 -10 6 0 15 5 18 10 8 12 4 12 -15 0z"/>
<path d="M4941 1164 c0 -11 3 -14 6 -6 3 7 2 16 -1 19 -3 4 -6 -2 -5 -13z"/>
<path d="M456 1095 c-4 -14 -10 -25 -14 -25 -5 0 -17 -7 -28 -16 -16 -13 -16
-15 -1 -10 23 7 21 -4 -8 -44 -30 -41 -31 -44 -5 -28 11 7 23 22 27 33 10 32
43 55 80 55 18 0 33 4 33 9 0 6 -16 7 -36 4 -34 -6 -35 -5 -28 21 3 15 2 26
-4 26 -5 0 -13 -11 -16 -25z"/>
<path d="M692 1096 c-19 -9 -22 -18 -20 -51 3 -35 6 -40 26 -37 16 2 22 -2 22
-17 0 -10 -6 -21 -12 -24 -7 -2 -10 -8 -6 -12 11 -11 28 4 28 26 0 10 5 19 10
19 6 0 10 -7 10 -15 0 -23 47 -19 55 4 3 11 12 22 20 25 8 3 12 12 9 20 -3 8
-11 13 -18 10 -7 -3 -19 2 -26 11 -16 19 -30 19 -30 0 0 -8 9 -15 19 -15 11 0
23 -5 26 -10 4 -6 -18 -9 -59 -8 -36 1 -63 5 -60 10 3 4 11 8 17 8 18 0 59 48
54 62 -3 9 -7 7 -12 -5 -6 -14 -9 -15 -19 -4 -8 10 -17 11 -34 3z m28 -26 c0
-5 -7 -10 -15 -10 -8 0 -15 5 -15 10 0 6 7 10 15 10 8 0 15 -4 15 -10z m70
-81 c0 -5 -7 -9 -15 -9 -15 0 -20 12 -9 23 8 8 24 -1 24 -14z"/>
<path d="M790 1101 c0 -5 7 -11 15 -15 8 -3 15 -1 15 3 0 5 -7 11 -15 15 -8 3
-15 1 -15 -3z"/>
<path d="M1005 1101 c-6 -5 -19 -12 -30 -15 -12 -3 -9 -4 8 -2 15 2 30 0 32
-4 6 -10 -24 -22 -36 -14 -5 3 -9 0 -9 -5 0 -17 35 -48 49 -43 10 3 10 6 2 12
-9 5 -9 13 0 34 13 28 2 54 -16 37z"/>
<path d="M1075 1100 c-4 -6 -10 -8 -14 -6 -4 3 -5 -11 -3 -30 3 -23 10 -34 21
-35 9 -1 3 -5 -14 -9 -17 -4 -22 -8 -11 -9 12 -1 16 -6 12 -16 -4 -12 0 -14
19 -9 17 4 33 -1 51 -15 28 -22 44 -27 44 -12 0 5 -13 14 -30 21 -40 17 -39
40 3 41 l32 2 -35 7 c-19 4 -28 8 -20 9 16 1 42 55 32 65 -9 10 -81 6 -87 -4z
m15 -20 c0 -5 -4 -10 -10 -10 -5 0 -10 5 -10 10 0 6 5 10 10 10 6 0 10 -4 10
-10z m47 4 c-3 -3 -12 -4 -19 -1 -8 3 -5 6 6 6 11 1 17 -2 13 -5z m-2 -24 c-3
-5 -10 -10 -16 -10 -5 0 -9 5 -9 10 0 6 7 10 16 10 8 0 12 -4 9 -10z"/>
<path d="M1992 1094 c2 -12 -10 -20 -42 -29 -162 -43 -454 -119 -503 -130 -33
-7 -64 -18 -70 -24 -6 -6 -8 -11 -5 -11 7 0 277 69 472 121 135 36 151 38 166
24 16 -14 22 -13 68 17 28 18 51 36 51 41 1 4 -31 7 -69 7 -60 0 -70 -3 -68
-16z"/>
<path d="M3665 1079 c-140 -12 -347 -29 -432 -36 -64 -5 -73 -4 -73 11 0 9 -6
16 -12 16 -18 0 -122 -49 -116 -55 2 -2 32 -11 66 -19 59 -13 62 -13 62 4 0
15 11 19 58 25 72 8 233 21 427 35 83 6 168 15 190 19 40 9 40 9 -15 8 -30 0
-100 -4 -155 -8z"/>
<path d="M830 1071 c0 -4 11 -6 25 -3 29 5 34 -17 10 -42 -10 -10 -12 -17 -4
-21 15 -10 19 -3 26 39 5 35 5 36 -26 36 -17 0 -31 -4 -31 -9z"/>
<path d="M961 1008 c-1 -14 -7 -28 -13 -31 -7 -2 -10 -7 -7 -11 4 -4 29 0 55
8 44 14 46 15 15 13 -29 -2 -36 2 -42 23 l-7 25 -1 -27z"/>
<path d="M473 1013 c-26 -5 -31 -23 -8 -23 34 0 12 -30 -32 -44 -27 -9 -37
-14 -23 -11 14 3 59 5 100 6 64 2 68 3 30 8 -37 5 -46 10 -48 29 -2 16 3 25
20 31 20 9 20 10 3 9 -11 0 -30 -3 -42 -5z"/>
<path d="M4304 987 c-8 -27 -15 -33 -49 -38 -38 -6 -38 -6 -7 -8 42 -1 41 -16
-5 -65 -37 -38 -37 -39 -6 -18 38 27 43 27 43 2 0 -17 7 -20 50 -20 51 0 56 4
62 45 3 18 -2 20 -45 17 -46 -4 -48 -3 -45 20 3 20 9 23 58 26 76 4 90 22 16
22 -52 0 -57 2 -51 19 3 11 2 22 -3 25 -5 3 -13 -9 -18 -27z m64 -114 c-3 -18
-38 -29 -64 -19 -26 10 -3 36 33 36 27 0 34 -4 31 -17z"/>
<path d="M4640 1007 c0 -4 9 -16 21 -28 28 -28 9 -51 -20 -25 -13 12 -21 14
-26 6 -8 -13 -9 -12 25 -27 21 -10 15 -12 -42 -11 -38 1 -68 5 -68 10 0 4 7 8
16 8 9 0 27 11 40 26 26 27 32 43 10 25 -10 -8 -15 -8 -18 -1 -2 6 -16 8 -33
4 -29 -5 -30 -7 -26 -51 3 -38 6 -44 22 -40 14 4 19 0 19 -13 0 -10 -6 -20
-12 -23 -7 -2 -10 -8 -6 -12 12 -13 38 4 38 25 0 11 5 20 10 20 6 0 10 -7 10
-15 0 -25 47 -19 54 8 5 18 8 20 16 7 7 -12 10 -8 10 16 0 35 19 57 38 45 13
-8 6 -41 -9 -41 -5 0 -9 -4 -9 -10 0 -5 7 -10 15 -10 15 0 32 61 21 78 -3 5
-17 7 -31 4 -16 -3 -33 2 -45 13 -11 10 -20 15 -20 12z m-82 -38 c-2 -6 -8
-10 -13 -10 -5 0 -11 4 -13 10 -2 6 4 11 13 11 9 0 15 -5 13 -11z m82 -79 c0
-5 -7 -10 -15 -10 -8 0 -15 5 -15 10 0 6 7 10 15 10 8 0 15 -4 15 -10z"/>
<path d="M1090 953 c0 -13 5 -23 10 -23 13 0 13 11 0 30 -8 12 -10 11 -10 -7z"/>
<path d="M456 776 c-3 -14 -17 -28 -33 -34 -18 -7 -22 -11 -10 -11 25 -1 21
-16 -15 -57 -18 -21 -26 -35 -18 -33 8 3 31 26 50 52 31 41 39 47 72 47 21 0
38 5 38 10 0 7 -13 8 -35 4 -35 -6 -36 -6 -29 20 3 15 2 26 -4 26 -5 0 -13
-11 -16 -24z"/>
<path d="M688 779 c-26 -14 -24 -60 1 -56 11 1 20 -2 20 -8 0 -5 -9 -9 -20 -8
-11 2 -19 -3 -19 -13 0 -10 7 -14 22 -12 15 2 24 -3 26 -14 2 -11 -3 -18 -13
-18 -9 0 -13 -4 -10 -10 11 -17 24 -11 31 15 7 27 24 34 24 10 0 -23 47 -19
55 5 3 11 12 20 20 20 8 0 15 12 17 27 2 18 10 29 21 31 16 3 18 0 12 -20 -4
-12 -12 -25 -16 -26 -11 -4 -2 -22 10 -22 11 0 24 67 16 79 -7 13 -61 -4 -57
-18 3 -14 -34 -15 -43 -1 -11 17 -23 11 -29 -15 -7 -28 -21 -33 -30 -10 -3 9
3 24 14 35 11 11 20 25 20 32 0 6 -7 3 -15 -8 -13 -17 -14 -17 -15 -1 0 19
-16 22 -42 6z m32 -24 c0 -8 -7 -15 -15 -15 -16 0 -20 12 -8 23 11 12 23 8 23
-8z m71 -53 c-28 -4 -40 6 -21 18 9 6 20 4 29 -3 12 -10 11 -13 -8 -15z m-1
-32 c0 -5 -7 -10 -15 -10 -8 0 -15 5 -15 10 0 6 7 10 15 10 8 0 15 -4 15 -10z"/>
<path d="M790 780 c20 -13 33 -13 25 0 -3 6 -14 10 -23 10 -15 0 -15 -2 -2
-10z"/>
<path d="M470 690 c-22 -6 -23 -8 -7 -15 27 -12 20 -34 -15 -44 -28 -8 -19 -9
50 -10 50 -1 81 3 77 8 -3 6 -15 8 -28 5 -53 -10 -80 32 -34 54 20 10 20 11 2
10 -11 0 -31 -3 -45 -8z"/>
<path d="M2258 464 c-4 -5 -4 -21 -1 -37 5 -25 9 -27 52 -25 l46 1 -42 4 c-49
5 -59 23 -12 23 16 0 28 4 25 8 -3 5 -15 8 -28 7 -13 -1 -26 5 -29 13 -3 9 -8
11 -11 6z"/>
<path d="M2210 446 c0 -8 -12 -17 -27 -19 l-28 -4 28 -2 c36 -1 35 -17 -3 -24
-16 -4 -30 -11 -30 -17 0 -13 52 -1 62 14 9 12 11 66 3 66 -3 0 -5 -6 -5 -14z"/>
<path d="M2807 453 c-11 -10 3 -23 24 -23 16 0 19 -7 19 -44 0 -26 6 -48 15
-56 12 -10 15 -10 16 1 0 8 4 4 9 -9 5 -12 7 -28 4 -36 -6 -16 26 -27 56 -19
31 8 23 20 -10 15 -27 -4 -30 -2 -30 23 0 14 7 33 15 41 8 9 15 31 15 50 0 33
-1 34 -43 34 -23 0 -52 7 -63 15 -12 8 -24 12 -27 8z m88 -43 c-17 -7 -17 -9
-2 -9 20 -1 24 -21 4 -21 -14 0 -37 20 -37 32 0 4 12 8 28 7 24 0 25 -1 7 -9z
m15 -50 c0 -13 -20 -13 -40 0 -12 8 -9 10 13 10 15 0 27 -4 27 -10z"/>
<path d="M2525 441 c-6 -5 -19 -11 -30 -14 -17 -4 -17 -5 4 -6 17 -1 21 -5 17
-17 -3 -9 -6 -18 -6 -20 0 -2 -13 -4 -30 -4 -16 0 -30 -4 -30 -10 0 -5 13 -7
30 -3 28 5 30 4 30 -26 0 -34 -16 -40 -36 -13 -12 15 -13 14 -14 -10 0 -28 0
-28 75 -29 41 -1 81 -2 88 -3 15 -1 27 90 13 104 -13 13 -49 13 -81 -2 -31
-14 -40 -6 -23 21 9 14 23 21 46 21 18 0 31 4 28 8 -7 11 -70 14 -81 3z m95
-96 c0 -31 -3 -35 -25 -35 -21 0 -25 5 -25 28 0 33 7 42 32 42 14 0 18 -8 18
-35z m-60 21 c0 -11 -19 -15 -25 -6 -3 5 1 10 9 10 9 0 16 -2 16 -4z m0 -50
c0 -11 -19 -15 -25 -6 -3 5 1 10 9 10 9 0 16 -2 16 -4z"/>
<path d="M2760 441 c0 -5 -8 -12 -17 -14 -14 -4 -12 -5 5 -6 13 -1 22 5 22 14
0 8 -2 15 -5 15 -3 0 -5 -4 -5 -9z"/>
<path d="M2813 413 c-18 -6 -16 -33 1 -33 8 0 17 4 20 8 7 12 -7 30 -21 25z"/>
<path d="M2740 400 c0 -5 9 -10 20 -10 11 0 20 5 20 10 0 6 -9 10 -20 10 -11
0 -20 -4 -20 -10z"/>
<path d="M2223 373 c-24 -5 -27 -11 -17 -36 3 -9 13 -13 25 -10 16 4 17 8 7
14 -18 11 5 34 26 26 41 -16 4 -62 -46 -57 -10 1 -18 -4 -18 -10 0 -8 13 -10
42 -5 38 7 41 6 30 -8 -9 -11 -10 -17 -2 -22 18 -11 23 1 27 60 3 54 3 55 -24
54 -16 -1 -38 -4 -50 -6z"/>
<path d="M2749 371 c9 -6 10 -11 3 -15 -11 -7 -9 -83 2 -78 3 1 12 2 19 2 8 0
7 4 -3 10 -11 7 -7 8 15 4 53 -10 68 -9 72 4 3 8 -5 12 -24 12 -15 0 -23 4
-18 8 6 4 12 17 12 29 2 27 -27 35 -44 13 -11 -13 -12 -13 -13 3 0 9 -8 17
-17 17 -14 0 -15 -2 -4 -9z m38 -47 c-3 -3 -12 -4 -19 -1 -8 3 -5 6 6 6 11 1
17 -2 13 -5z"/>
</g>
</svg>
